<svg width="88" height="88" viewBox="0 0 88 88" fill="none" xmlns="http://www.w3.org/2000/svg">
<rect x="2" y="2" width="84" height="84" rx="42" stroke="#ED7F1D" stroke-width="4"/>
<path d="M71.9992 44.5521C71.9992 44.5416 71.9986 44.5312 71.9985 44.5207C71.9831 43.8189 71.4196 43.2597 70.7093 43.2597H70.3708L65.1431 33.1526C64.9225 32.7258 64.4826 32.4601 63.997 32.46L55.0719 32.4581L55.4124 29.7591C55.5095 28.6805 55.1761 27.6621 54.4732 26.8912C53.7717 26.122 52.7922 25.6982 51.7151 25.6982H24.0145C23.318 25.6982 22.7264 26.2371 22.66 26.9319L22.3823 29.1556H38.1647C39.1895 29.1556 39.9985 29.9864 39.9718 31.0112C39.9449 32.036 39.0924 32.8667 38.0676 32.8667H32.8033C32.8042 32.8694 32.8051 32.872 32.8061 32.8745H17.347C16.6223 32.8745 16.0194 33.4619 16.0005 34.1867C15.9815 34.9114 16.5535 35.4988 17.2783 35.4988H37.7443C38.6944 35.6451 39.4041 36.4667 39.378 37.4614C39.3494 38.5538 38.4451 39.4396 37.3545 39.4487H23.2447C22.5127 39.4487 21.9039 40.0421 21.8846 40.7741C21.8654 41.5061 22.4433 42.0995 23.1753 42.0995H37.1189C38.0828 42.2337 38.8068 43.062 38.7805 44.0664C38.7518 45.1643 37.8383 46.0544 36.7403 46.0544H20.7439V46.0559H19.3998C18.6678 46.0559 18.0589 46.6493 18.0397 47.3813C18.0205 48.1133 18.5982 48.7067 19.3304 48.7067H20.4903L20.0367 53.4539C19.9394 54.5324 20.2728 55.5508 20.9758 56.3217C21.6772 57.091 22.6568 57.5146 23.7339 57.5146H24.7346C25.2115 60.2415 27.5707 62.3018 30.4564 62.3018C33.3422 62.3018 35.8093 60.2415 36.4286 57.5148H48.9163C49.9259 57.5148 50.8818 57.1287 51.6314 56.4966C52.3169 57.1545 53.2256 57.5148 54.2178 57.5148H54.4232C54.9 60.2415 57.2592 62.3018 60.1451 62.3018C63.0308 62.3018 65.4979 60.2415 66.1172 57.5148H66.9415C69.0888 57.5148 70.9931 55.7691 71.1866 53.6234L71.9943 44.6763C71.9953 44.6642 71.9948 44.6523 71.9956 44.6401C71.9969 44.6217 71.9994 44.6037 72 44.5851C72.0002 44.574 71.9992 44.5632 71.9992 44.5521ZM30.5259 59.651C28.6988 59.651 27.2513 58.1647 27.2991 56.3377C27.3469 54.5105 28.8723 53.0241 30.6994 53.0241C32.5264 53.0241 33.9739 54.5105 33.926 56.3377C33.8782 58.1647 32.3529 59.651 30.5259 59.651ZM60.2145 59.651C58.3875 59.651 56.94 58.1647 56.9877 56.3377C57.0356 54.5105 58.561 53.0241 60.388 53.0241C62.215 53.0241 63.6626 54.5105 63.6147 56.3377C63.5668 58.1647 62.0415 59.651 60.2145 59.651ZM68.5459 53.4539C68.477 54.2183 67.7741 54.864 67.0111 54.864H66.1195C65.5292 52.2857 63.2376 50.3733 60.4573 50.3733C57.6771 50.3733 55.2854 52.2857 54.5601 54.864H54.2873C53.9503 54.864 53.6497 54.7377 53.4405 54.5081C53.2299 54.2773 53.1307 53.963 53.1613 53.6233L54.8325 35.1089L58.6707 35.1097L58.0623 41.8495C57.9649 42.928 58.2983 43.9464 59.0011 44.7173C59.7025 45.4868 60.6824 45.9106 61.7596 45.9106H69.2266L68.5459 53.4539Z" fill="#566A8E"/>
</svg>
