<svg width="88" height="88" viewBox="0 0 88 88" fill="none" xmlns="http://www.w3.org/2000/svg">
<rect x="2" y="2" width="84" height="84" rx="42" stroke="#ED7F1D" stroke-width="4"/>
<path d="M41.5581 62.9281V58.5228C38.4715 58.3834 35.4782 57.5486 33.7266 56.5285L35.11 51.0993C37.0458 52.1642 39.7604 53.1396 42.7574 53.1396C45.3824 53.1396 47.1789 52.1195 47.1789 50.2645C47.1789 48.5004 45.7046 47.3857 42.2958 46.2262C37.368 44.5567 34.004 42.2364 34.004 37.7378C34.004 33.6535 36.8617 30.4537 41.7895 29.4796V25.0706H46.3018V29.1549C49.3883 29.2942 51.4622 29.9411 52.9813 30.6851L51.6464 35.9289C50.4496 35.4189 48.3309 34.3502 45.0117 34.3502C42.0184 34.3502 41.0505 35.6503 41.0505 36.9491C41.0505 38.4793 42.6628 39.4534 46.5792 40.9389C52.0582 42.8883 54.2714 45.4387 54.2714 49.6164C54.2714 53.7455 51.3689 57.27 46.0729 58.1993V62.9293H41.5581V62.9281Z" fill="#566A8E"/>
<path d="M21.0784 56.2749V53.4185C19.0766 53.3277 17.1358 52.7865 16 52.1246L16.897 48.6039C18.1523 49.2944 19.9126 49.9264 21.8572 49.9264C23.5603 49.9264 24.7248 49.2645 24.7248 48.0615C24.7248 46.9169 23.7693 46.1941 21.5573 45.4427C18.3613 44.3603 16.1791 42.855 16.1791 39.9376C16.1791 37.2889 18.0328 35.2138 21.2289 34.5818V31.7229H24.155V34.3716C26.1567 34.4624 27.5016 34.8816 28.4869 35.3643L27.621 38.7644C26.8447 38.4335 25.4712 37.7405 23.3177 37.7405C21.3769 37.7405 20.7487 38.5828 20.7487 39.4263C20.7487 40.4191 21.7949 41.051 24.3341 42.014C27.8872 43.278 29.3229 44.9314 29.3229 47.6422C29.3229 50.3195 27.4406 52.6061 24.0057 53.2083V56.2762H21.0784V56.2749Z" fill="#566A8E"/>
<path d="M63.7556 56.2749V53.4185C61.7539 53.3277 59.8131 52.7865 58.6772 52.1246L59.5742 48.6039C60.8295 49.2944 62.5899 49.9264 64.5344 49.9264C66.2375 49.9264 67.402 49.2645 67.402 48.0615C67.402 46.9169 66.4466 46.1941 64.2346 45.4427C61.0385 44.3603 58.8564 42.855 58.8564 39.9376C58.8564 37.2889 60.7101 35.2138 63.9061 34.5818V31.7229H66.8322V34.3716C68.834 34.4624 70.1788 34.8816 71.1641 35.3643L70.2982 38.7644C69.5219 38.4335 68.1485 37.7405 65.995 37.7405C64.0542 37.7405 63.4259 38.5828 63.4259 39.4263C63.4259 40.4191 64.4722 41.051 67.0114 42.014C70.5645 43.278 72.0001 44.9314 72.0001 47.6422C72.0001 50.3195 70.1178 52.6061 66.6829 53.2083V56.2762H63.7556V56.2749Z" fill="#566A8E"/>
</svg>
