<svg width="88" height="88" viewBox="0 0 88 88" fill="none" xmlns="http://www.w3.org/2000/svg">
<rect x="2" y="2" width="84" height="84" rx="42" stroke="#ED7F1D" stroke-width="4"/>
<path d="M71.5621 39.1527C71.5621 48.0472 66.4477 55.7473 58.9969 59.4748C58.38 58.7398 57.5138 58.2016 56.5075 57.9873L54.1056 57.2085C61.9326 54.9334 67.6508 47.7102 67.6508 39.1526C67.6508 28.7618 59.2289 20.3441 48.8425 20.3441C41.1074 20.3441 34.4661 25.0123 31.5829 31.6886L31.0098 27.4361C30.9879 26.7974 30.8391 26.1892 30.5811 25.6424C34.7198 20.0598 41.3568 16.4373 48.8425 16.4373C61.3857 16.4374 71.5621 26.6006 71.5621 39.1527Z" fill="#566A8E"/>
<path d="M71.5623 39.1526C71.5623 39.4851 71.5536 39.8176 71.5404 40.1457C71.0417 28.0355 61.0666 18.3841 48.8426 18.3841C41.5931 18.3841 35.1443 21.7792 30.9836 27.0642C30.9267 26.5611 30.7867 26.0799 30.5811 25.6424C34.7198 20.0598 41.3568 16.4373 48.8425 16.4373C61.386 16.4373 71.5623 26.6005 71.5623 39.1526Z" fill="#566A8E"/>
<path d="M71.562 39.1526C71.562 48.0471 66.4477 55.7472 58.9968 59.4747C58.6251 59.0328 58.1612 58.6609 57.6318 58.3897C64.5706 54.6272 71.1901 46.4107 71.5401 38.1987C71.5533 38.5138 71.562 38.8332 71.562 39.1526Z" fill="#566A8E"/>
<path d="M47.3929 71.0133C31.2037 65.257 19.3307 51.0314 16.5625 34.0737C15.5645 27.9558 20.6599 22.5578 26.83 23.114C26.8803 23.1186 26.9307 23.1231 26.9811 23.1276C29.2274 23.3301 30.9402 25.1829 31.0093 27.4356L31.892 33.9895C32.4198 36.1854 31.2736 38.4337 29.1589 39.2267L29.0725 39.2588C26.5705 40.2018 25.4694 43.1183 26.7075 45.4873C29.4569 50.7358 33.3054 55.347 37.9778 58.9908C40.0871 60.6325 43.1535 60.0707 44.5287 57.7777L44.5758 57.6986C45.7341 55.7598 48.1511 55.0341 50.2173 55.9461L56.5076 57.9866C58.7115 58.4575 60.2281 60.474 60.0257 62.7203L60.012 62.8714C59.4559 69.0414 53.2337 73.0894 47.3929 71.0133Z" fill="#566A8E"/>
<path d="M18.9901 36.9799C20.2781 44.833 23.5104 52.099 28.2218 58.2125C22.1915 51.554 18.0545 43.2123 16.5612 34.0697C15.5651 27.9548 20.6562 22.5604 26.833 23.1173L26.9813 23.1306C28.8796 23.3017 30.3952 24.6494 30.8564 26.4178C30.4112 26.2132 29.93 26.0801 29.4109 26.0333L29.255 26.0193C23.0857 25.4631 17.9939 30.8648 18.9901 36.9799Z" fill="#566A8E"/>
<path d="M60.026 62.7186L60.012 62.8744C59.4558 69.0438 53.2305 73.0875 47.3923 71.0139C38.7006 67.9205 31.2529 62.3901 25.7915 55.3044C30.9525 60.995 37.4956 65.4495 44.9635 68.1037C50.8016 70.1774 57.0269 66.1337 57.5831 59.9643L57.5971 59.8085C57.6439 59.2894 57.5996 58.7846 57.4705 58.3095C59.1347 59.0875 60.197 60.8203 60.026 62.7186Z" fill="#566A8E"/>
<path d="M72 39.1528C72 26.3866 61.6118 16 48.8425 16C41.7624 16 35.0134 19.3086 30.6392 24.8677C29.8462 23.6631 28.5388 22.8286 27.0219 22.692L26.8693 22.6783C23.7705 22.3977 20.7788 23.5465 18.658 25.825C16.5576 28.0818 15.6365 31.114 16.1307 34.1441C18.9335 51.3124 30.8564 65.5979 47.2467 71.4257C48.3285 71.8103 49.4458 72 50.5566 72C52.416 72 54.2579 71.4681 55.8832 70.4268C58.5048 68.7477 60.1685 66.0082 60.4479 62.9106L60.4616 62.7593C60.5646 61.6166 60.2537 60.5228 59.6503 59.6257C67.28 55.5992 72 47.8045 72 39.1528ZM59.59 62.6807L59.5763 62.8319C59.3217 65.6582 57.8032 68.1576 55.411 69.6902C53.0449 71.2056 50.1754 71.5381 47.5397 70.6011C31.4498 64.8802 19.7457 50.8565 16.9946 34.0031C16.5438 31.2422 17.3838 28.4787 19.2988 26.4211C21.2338 24.3421 23.9653 23.2937 26.7933 23.55L26.9419 23.5637C28.9491 23.7444 30.5095 25.4146 30.5718 27.4487C30.5727 27.4641 30.5736 27.479 30.5757 27.494L31.4583 34.0481C31.4605 34.0626 31.463 34.0776 31.4664 34.0916C31.9449 36.08 30.8866 38.1116 29.0067 38.8166L28.9182 38.8495C27.6125 39.3413 26.579 40.3705 26.0821 41.6733C25.583 42.9819 25.6698 44.4457 26.3201 45.6903C29.0806 50.9599 33.0186 55.6782 37.709 59.3359C38.8164 60.1981 40.2413 60.5463 41.6179 60.2882C42.9885 60.0323 44.1862 59.1992 44.9052 58.0003L44.9514 57.9225C45.9819 56.1981 48.1703 55.5206 50.0404 56.3464C50.054 56.3525 50.0681 56.3576 50.0822 56.3623L56.3727 58.4028C56.3873 58.4075 56.4018 58.4113 56.4163 58.4143C58.4066 58.8398 59.7712 60.6739 59.59 62.6807ZM50.3734 55.5366C48.1034 54.5458 45.4527 55.3773 44.1996 57.4755L44.1539 57.5524C43.5647 58.5343 42.5821 59.2179 41.4575 59.4281C40.3283 59.6379 39.1571 59.3541 38.2471 58.6458C33.6546 55.0646 29.7987 50.4442 27.0958 45.2848C26.5613 44.2624 26.49 43.0597 26.8997 41.9852C27.3078 40.9166 28.1559 40.072 29.2248 39.6691L29.3128 39.6366C31.5998 38.7786 32.891 36.3198 32.3228 33.9097L32.0329 31.7566C34.9631 25.0864 41.5476 20.782 48.8425 20.782C58.9722 20.782 67.2134 29.0233 67.2134 39.1529C67.2134 47.2275 61.8315 54.4428 54.1101 56.7488L50.3734 55.5366ZM59.0875 58.9338C58.4361 58.267 57.5924 57.7756 56.6219 57.5635L55.5031 57.2006C62.9749 54.4409 68.0884 47.2073 68.0884 39.1527C68.0884 28.5406 59.4545 19.9067 48.8424 19.9067C41.6533 19.9067 35.1269 23.8995 31.8218 30.1898L31.446 27.3989C31.425 26.8046 31.2966 26.2372 31.0829 25.7136C35.2823 20.177 41.8995 16.8749 48.8425 16.8749C61.129 16.8748 71.125 26.8686 71.125 39.1526C71.125 47.5356 66.5201 55.0838 59.0875 58.9338Z" fill="white"/>
<path d="M38.7517 39.6369C38.7517 39.1844 38.6437 38.8285 38.427 38.5687C38.2104 38.3085 37.8711 38.1787 37.4093 38.1787C36.4565 38.1787 35.9515 38.8286 35.8938 40.1274H33.916C33.9737 38.9247 34.3394 38.013 35.0132 37.3922C35.6865 36.7714 36.5381 36.4612 37.5682 36.4612C38.6171 36.4612 39.4228 36.7333 39.986 37.2768C40.5488 37.8207 40.8303 38.5449 40.8303 39.449C40.8303 40.1617 40.6209 40.876 40.2027 41.5929C39.784 42.3099 39.252 42.9691 38.6073 43.5702C37.9626 44.1718 37.2841 44.6888 36.5723 45.122H41.0324V46.7819H33.8584V45.2664C37.1204 43.0049 38.7517 41.1284 38.7517 39.6369Z" fill="#566A8E"/>
<path d="M41.0324 47.11H33.8584C33.6773 47.11 33.5303 46.963 33.5303 46.7819V45.2664C33.5303 45.1588 33.5828 45.0579 33.6713 44.9968C36.8248 42.8105 38.4236 41.0075 38.4236 39.6369C38.4236 39.2651 38.3398 38.9768 38.175 38.7789C38.0224 38.5956 37.7721 38.5068 37.4094 38.5068C36.9309 38.5068 36.287 38.6764 36.2216 40.1418C36.2139 40.3175 36.0694 40.4554 35.8939 40.4554H33.9161C33.8265 40.4554 33.7406 40.4187 33.6786 40.3537C33.6167 40.2887 33.5842 40.2011 33.5885 40.1114C33.65 38.8254 34.0546 37.8291 34.7911 37.1505C35.5234 36.4755 36.4579 36.1328 37.5683 36.1328C38.6997 36.1328 39.5901 36.4383 40.2138 37.0403C40.8407 37.6461 41.1585 38.4566 41.1585 39.4487C41.1585 40.2165 40.9326 40.9932 40.486 41.7581C40.0532 42.4993 39.4965 43.1898 38.8312 43.8102C38.4509 44.1648 38.0553 44.4938 37.6486 44.7937H41.0324C41.2135 44.7937 41.3605 44.9407 41.3605 45.1218V46.7817C41.3605 46.963 41.2135 47.11 41.0324 47.11ZM34.1865 46.4538H40.7043V45.4501H36.5723C36.4253 45.4501 36.2959 45.3522 36.2566 45.2105C36.2168 45.0691 36.2762 44.9182 36.4018 44.8418C37.0923 44.4214 37.7591 43.913 38.3833 43.3301C39.002 42.7537 39.5186 42.1133 39.9193 41.4275C40.3059 40.7644 40.5021 40.0987 40.5021 39.449C40.5021 38.63 40.2585 37.9967 39.7578 37.5127C39.2604 37.0329 38.5239 36.7894 37.5681 36.7894C36.6144 36.7894 35.8518 37.0653 35.2356 37.6337C34.6948 38.1319 34.3705 38.8594 34.2701 39.7994H35.5895C35.7612 38.1985 36.6606 37.8507 37.4091 37.8507C37.971 37.8507 38.3982 38.0216 38.679 38.359C38.9448 38.6777 39.0797 39.1076 39.0797 39.637C39.0797 41.2354 37.4788 43.1336 34.1864 45.4378L34.1865 46.4538Z" fill="#566A8E"/>
<path d="M42.5117 44.8192V43.1302L47.3905 36.562H49.5703V43.0579H50.8983V44.8191H49.5703V46.8686H47.5204V44.8191L42.5117 44.8192ZM47.6792 38.944L44.5902 43.058H47.6792V38.944Z" fill="#566A8E"/>
<path d="M49.5703 47.1966H47.5204C47.3393 47.1966 47.1923 47.0496 47.1923 46.8685V45.147H42.5117C42.3306 45.147 42.1836 45 42.1836 44.8189V43.13C42.1836 43.0594 42.2062 42.9907 42.2481 42.9343L47.1269 36.3661C47.1888 36.2828 47.2867 36.2336 47.3905 36.2336H49.5703C49.7515 36.2336 49.8985 36.3806 49.8985 36.5618V42.7295H50.8983C51.0794 42.7295 51.2264 42.8765 51.2264 43.0577V44.8188C51.2264 44.9999 51.0794 45.1469 50.8983 45.1469H49.8985V46.8684C49.8985 47.0496 49.7515 47.1966 49.5703 47.1966ZM47.8484 46.5404H49.2421V44.8189C49.2421 44.6378 49.3891 44.4908 49.5702 44.4908H50.57V43.3859H49.5702C49.3891 43.3859 49.2421 43.2389 49.2421 43.0578V36.89H47.5553L42.8397 43.2386V44.4908H47.5203C47.7014 44.4908 47.8484 44.6378 47.8484 44.8189V46.5404ZM47.6792 43.3859H44.5902C44.4658 43.3859 44.3522 43.3158 44.2966 43.2043C44.241 43.0932 44.2531 42.9604 44.3278 42.8608L47.4169 38.7467C47.5018 38.634 47.6497 38.5887 47.783 38.6322C47.9172 38.6771 48.0074 38.8028 48.0074 38.9437V43.0578C48.0074 43.239 47.8605 43.3859 47.6792 43.3859ZM45.247 42.7296H47.3512V39.9273L45.247 42.7296Z" fill="#566A8E"/>
<path d="M57.3072 33.1992L53.3953 49.4813H51.4321L55.344 33.1992H57.3072Z" fill="#566A8E"/>
<path d="M53.395 49.8093H51.4318C51.3314 49.8093 51.2361 49.7632 51.1741 49.6841C51.1118 49.6054 51.0891 49.5021 51.1125 49.4046L55.0244 33.1225C55.0599 32.9746 55.1919 32.8708 55.3436 32.8708H57.3068C57.4072 32.8708 57.5024 32.917 57.5644 32.9961C57.6267 33.0747 57.6493 33.1781 57.6259 33.2755L53.714 49.5576C53.6787 49.7054 53.5467 49.8093 53.395 49.8093ZM51.8479 49.1531H53.1364L56.8907 33.5272H55.6022L51.8479 49.1531Z" fill="#566A8E"/>
<path d="M65.0714 38.1065L61.3471 46.8686H59.2394L63.007 38.3377H58.2871V36.5911H65.0714V38.1065Z" fill="#566A8E"/>
<path d="M61.3471 47.1967H59.2394C59.1283 47.1967 59.0249 47.1407 58.9647 47.0476C58.904 46.9549 58.8946 46.8374 58.9391 46.7361L62.5032 38.6658H58.2871C58.106 38.6658 57.959 38.5188 57.959 38.3377V36.5911C57.959 36.4099 58.106 36.2629 58.2871 36.2629H65.0714C65.2525 36.2629 65.3995 36.4099 65.3995 36.5911V38.1066C65.3995 38.1505 65.3906 38.1942 65.3735 38.2348L61.6492 46.9969C61.5974 47.1181 61.4787 47.1967 61.3471 47.1967ZM59.7432 46.5405H61.1301L64.7434 38.0398V36.9192H58.6153V38.0095H63.0071C63.1182 38.0095 63.2216 38.0655 63.2818 38.1586C63.3425 38.2514 63.3519 38.3688 63.3074 38.4701L59.7432 46.5405Z" fill="#566A8E"/>
</svg>
