<svg width="30" height="31" viewBox="0 0 30 31" fill="none" xmlns="http://www.w3.org/2000/svg">
<circle cx="15" cy="15.5894" r="15" fill="white" fill-opacity="0.25"/>
<path d="M22.9147 15.7789C22.9147 11.4594 19.4347 7.95801 15.1424 7.95801C10.8482 7.95898 7.36816 11.4594 7.36816 15.7799C7.36816 19.6825 10.2109 22.9178 13.926 23.5046V18.0397H11.9538V15.7799H13.928V14.0554C13.928 12.0958 15.089 11.0135 16.864 11.0135C17.715 11.0135 18.604 11.166 18.604 11.166V13.0897H17.6237C16.659 13.0897 16.3578 13.693 16.3578 14.3119V15.7789H18.5127L18.1688 18.0387H16.3568V23.5036C20.072 22.9168 22.9147 19.6816 22.9147 15.7789Z" fill="white"/>
</svg>
