<svg width="30" height="31" viewBox="0 0 30 31" fill="none" xmlns="http://www.w3.org/2000/svg">
<circle cx="15" cy="15.5894" r="15" fill="white" fill-opacity="0.25"/>
<path d="M14.8791 12.9228C13.4764 12.9228 12.3317 14.0676 12.3317 15.4703C12.3317 16.8731 13.4764 18.0178 14.8791 18.0178C16.2819 18.0178 17.4266 16.8731 17.4266 15.4703C17.4266 14.0676 16.2819 12.9228 14.8791 12.9228ZM22.5196 15.4703C22.5196 14.4154 22.5292 13.37 22.4699 12.317C22.4107 11.0939 22.1317 10.0084 21.2373 9.11397C20.341 8.21767 19.2574 7.94056 18.0343 7.88131C16.9794 7.82207 15.9341 7.83162 14.8811 7.83162C13.8261 7.83162 12.7808 7.82207 11.7278 7.88131C10.5047 7.94056 9.41922 8.21958 8.52484 9.11397C7.62855 10.0103 7.35144 11.0939 7.2922 12.317C7.23296 13.3719 7.24251 14.4173 7.24251 15.4703C7.24251 16.5233 7.23296 17.5706 7.2922 18.6236C7.35144 19.8467 7.63046 20.9323 8.52484 21.8266C9.42113 22.723 10.5047 23.0001 11.7278 23.0593C12.7827 23.1186 13.8281 23.109 14.8811 23.109C15.936 23.109 16.9813 23.1186 18.0343 23.0593C19.2574 23.0001 20.3429 22.721 21.2373 21.8266C22.1336 20.9303 22.4107 19.8467 22.4699 18.6236C22.5311 17.5706 22.5196 16.5252 22.5196 15.4703ZM14.8791 19.39C12.7101 19.39 10.9595 17.6394 10.9595 15.4703C10.9595 13.3012 12.7101 11.5506 14.8791 11.5506C17.0482 11.5506 18.7988 13.3012 18.7988 15.4703C18.7988 17.6394 17.0482 19.39 14.8791 19.39ZM18.9593 12.3055C18.4528 12.3055 18.0439 11.8965 18.0439 11.3901C18.0439 10.8837 18.4528 10.4747 18.9593 10.4747C19.4657 10.4747 19.8747 10.8837 19.8747 11.3901C19.8748 11.5104 19.8513 11.6295 19.8053 11.7406C19.7594 11.8517 19.6919 11.9527 19.6069 12.0377C19.5219 12.1228 19.4209 12.1902 19.3098 12.2361C19.1986 12.2821 19.0795 12.3057 18.9593 12.3055Z" fill="white"/>
</svg>
