<svg width="46" height="47" viewBox="0 0 46 47" fill="none" xmlns="http://www.w3.org/2000/svg">
<path d="M22.9999 12.0073C25.5488 12.0073 27.9933 13.0199 29.7957 14.8222C31.598 16.6246 32.6106 19.0691 32.6106 21.618C32.6106 25.6792 29.7569 30.105 24.1236 34.9429C23.8104 35.212 23.411 35.3598 22.998 35.3594C22.5851 35.3591 22.186 35.2106 21.8732 34.941L21.5006 34.6176C16.1166 29.9059 13.3892 25.5885 13.3892 21.618C13.3892 19.0691 14.4017 16.6246 16.2041 14.8222C18.0064 13.0199 20.451 12.0073 22.9999 12.0073ZM22.9999 17.9216C22.0195 17.9216 21.0793 18.3111 20.3861 19.0043C19.6929 19.6975 19.3034 20.6377 19.3034 21.618C19.3034 22.5984 19.6929 23.5386 20.3861 24.2318C21.0793 24.925 22.0195 25.3145 22.9999 25.3145C23.9802 25.3145 24.9204 24.925 25.6136 24.2318C26.3069 23.5386 26.6963 22.5984 26.6963 21.618C26.6963 20.6377 26.3069 19.6975 25.6136 19.0043C24.9204 18.3111 23.9802 17.9216 22.9999 17.9216Z" fill="#566A8E"/>
<circle cx="23" cy="23.5894" r="23" fill="#566A8E" fill-opacity="0.1"/>
</svg>
