<svg width="22" height="23" viewBox="0 0 22 23" fill="none" xmlns="http://www.w3.org/2000/svg">
<path d="M11 6.05029C12.219 6.05029 13.3882 6.53456 14.2502 7.39656C15.1122 8.25855 15.5964 9.42767 15.5964 10.6467C15.5964 12.589 14.2316 14.7057 11.5374 17.0195C11.3876 17.1482 11.1966 17.2189 10.9991 17.2187C10.8016 17.2185 10.6107 17.1475 10.4612 17.0186L10.2829 16.8639C7.70801 14.6105 6.40356 12.5456 6.40356 10.6467C6.40356 9.42767 6.88783 8.25855 7.74983 7.39656C8.61182 6.53456 9.78094 6.05029 11 6.05029ZM11 8.87886C10.5311 8.87886 10.0815 9.06512 9.74993 9.39666C9.41839 9.7282 9.23214 10.1779 9.23214 10.6467C9.23214 11.1156 9.41839 11.5652 9.74993 11.8968C10.0815 12.2283 10.5311 12.4146 11 12.4146C11.4689 12.4146 11.9185 12.2283 12.2501 11.8968C12.5816 11.5652 12.7678 11.1156 12.7678 10.6467C12.7678 10.1779 12.5816 9.7282 12.2501 9.39666C11.9185 9.06512 11.4689 8.87886 11 8.87886Z" fill="white"/>
<circle cx="11" cy="11.5894" r="11" fill="white" fill-opacity="0.25"/>
</svg>
