<svg width="22" height="23" viewBox="0 0 22 23" fill="none" xmlns="http://www.w3.org/2000/svg">
<path d="M5.50672 8.77037C5.54148 8.33986 5.73705 7.93822 6.05451 7.64537C6.37198 7.35252 6.78806 7.18992 7.21997 7.18994H14.7825C15.2182 7.18992 15.6377 7.35543 15.9561 7.65297C16.2745 7.95051 16.4679 8.35787 16.4974 8.79264L11.0018 11.6862L5.50672 8.77037ZM5.50122 9.54587V14.2712C5.50122 14.727 5.6823 15.1642 6.00463 15.4865C6.32696 15.8089 6.76413 15.9899 7.21997 15.9899H14.7825C15.2383 15.9899 15.6755 15.8089 15.9978 15.4865C16.3201 15.1642 16.5012 14.727 16.5012 14.2712V9.56759L11.1613 12.3792C11.1117 12.4053 11.0566 12.4188 11.0006 12.4187C10.9446 12.4186 10.8895 12.4049 10.8401 12.3786L5.50122 9.54587Z" fill="white"/>
<circle cx="11" cy="11.5894" r="11" fill="white" fill-opacity="0.25"/>
</svg>
