<svg width="46" height="47" viewBox="0 0 46 47" fill="none" xmlns="http://www.w3.org/2000/svg">
<path d="M11.5139 17.6952C11.5866 16.795 11.9955 15.9552 12.6593 15.3429C13.3231 14.7306 14.1931 14.3906 15.0962 14.3906H30.9087C31.8198 14.3906 32.697 14.7366 33.3627 15.3588C34.0283 15.9809 34.4329 16.8327 34.4944 17.7417L23.0036 23.7919L11.5139 17.6952ZM11.5024 19.3166V29.1969C11.5024 30.15 11.8811 31.0641 12.555 31.738C13.229 32.412 14.1431 32.7906 15.0962 32.7906H30.9087C31.8618 32.7906 32.7759 32.412 33.4499 31.738C34.1238 31.0641 34.5024 30.15 34.5024 29.1969V19.3621L23.3371 25.2409C23.2335 25.2954 23.1182 25.3238 23.0011 25.3236C22.8841 25.3234 22.7689 25.2946 22.6655 25.2397L11.5024 19.3166Z" fill="#566A8E"/>
<circle cx="23" cy="23.5894" r="23" fill="#566A8E" fill-opacity="0.1"/>
</svg>
