<svg width="22" height="23" viewBox="0 0 22 23" fill="none" xmlns="http://www.w3.org/2000/svg">
<path d="M6.72311 10.3153C7.88963 12.8551 9.96197 14.868 12.5345 15.9603L12.9476 16.1444C13.4051 16.3481 13.9198 16.3838 14.401 16.2452C14.8822 16.1066 15.2991 15.8026 15.5781 15.3868L16.1182 14.5825C16.2027 14.4563 16.2369 14.3031 16.2141 14.153C16.1913 14.0029 16.1131 13.8668 15.9949 13.7714L14.1651 12.2952C14.1013 12.2438 14.0279 12.2059 13.9491 12.1836C13.8704 12.1613 13.7879 12.1552 13.7067 12.1655C13.6255 12.1759 13.5472 12.2026 13.4766 12.244C13.406 12.2854 13.3445 12.3406 13.2957 12.4064L12.7295 13.17C11.2761 12.4522 10.0997 11.2756 9.38217 9.82204L10.1452 9.25585C10.211 9.2071 10.2662 9.14557 10.3076 9.07494C10.349 9.00432 10.3756 8.92606 10.386 8.84486C10.3964 8.76367 10.3903 8.68121 10.368 8.60245C10.3457 8.52368 10.3077 8.45023 10.2564 8.3865L8.78013 6.5567C8.68481 6.43851 8.54869 6.3603 8.39858 6.33747C8.24847 6.31465 8.09525 6.34886 7.96911 6.43337L7.1593 6.97648C6.74098 7.25702 6.43582 7.67695 6.2982 8.16146C6.16057 8.64598 6.19942 9.16362 6.40782 9.62217L6.72311 10.3153Z" fill="white"/>
<circle cx="11" cy="11.5894" r="11" fill="white" fill-opacity="0.25"/>
</svg>
