<svg width="46" height="47" viewBox="0 0 46 47" fill="none" xmlns="http://www.w3.org/2000/svg">
<path d="M14.0574 20.9265C16.4965 26.2369 20.8295 30.4458 26.2085 32.7296L27.0723 33.1145C28.0288 33.5404 29.105 33.6151 30.1111 33.3253C31.1173 33.0355 31.9889 32.3999 32.5724 31.5305L33.7017 29.8487C33.8784 29.5849 33.9499 29.2646 33.9022 28.9507C33.8544 28.6368 33.6909 28.3522 33.4438 28.1529L29.6178 25.0662C29.4846 24.9588 29.331 24.8794 29.1663 24.8328C29.0016 24.7862 28.8292 24.7734 28.6594 24.7951C28.4897 24.8168 28.326 24.8726 28.1784 24.9592C28.0307 25.0457 27.902 25.1612 27.8001 25.2987L26.6163 26.8954C23.5773 25.3945 21.1175 22.9343 19.6172 19.8951L21.2127 18.7112C21.3502 18.6093 21.4656 18.4806 21.5522 18.333C21.6387 18.1853 21.6945 18.0217 21.7162 17.8519C21.7379 17.6821 21.7251 17.5097 21.6785 17.345C21.6319 17.1803 21.5525 17.0267 21.4451 16.8935L18.3584 13.0675C18.1591 12.8204 17.8745 12.6569 17.5606 12.6092C17.2468 12.5614 16.9264 12.633 16.6627 12.8097L14.9694 13.9453C14.0947 14.5318 13.4567 15.4099 13.1689 16.423C12.8812 17.436 12.9624 18.5184 13.3981 19.4772L14.0574 20.9265Z" fill="#566A8E"/>
<circle cx="23" cy="23.5894" r="23" fill="#566A8E" fill-opacity="0.1"/>
</svg>
