<svg width="107" height="121" viewBox="0 0 107 121" fill="none" xmlns="http://www.w3.org/2000/svg">
<path d="M70.4371 76.1918C90.1488 66.3373 98.1396 42.3674 88.2825 22.6557C78.4279 2.94405 54.4606 -5.04422 34.7489 4.81035C15.0373 14.6649 7.04645 38.6323 16.901 58.3439C26.753 78.0556 50.7204 86.0464 70.4321 76.1944C70.4321 76.1944 70.4346 76.1918 70.4371 76.1918Z" fill="#FF0400"/>
<path d="M49.8519 35.3995V47.8719C49.8519 50.9037 47.427 53.2855 44.5806 53.2855H38.5729V63.1553H44.5806C52.9091 63.1553 59.6557 56.2157 59.6557 47.7577V35.3995C59.6557 32.4718 62.0806 29.9783 64.9245 29.9783H70.9449V20.0044H64.9245C56.4893 20.0044 49.8519 26.944 49.8519 35.3995Z" fill="white"/>
<path d="M39.0933 92.5391C33.3776 92.5391 28.802 96.8709 28.802 102.287C28.802 107.703 33.4919 112.032 38.9765 112.032C41.7213 112.032 43.8974 110.948 45.3778 109.216V110.841C45.3778 114.089 42.638 116.682 39.0908 116.682H38.2934V120.589H39.0908C44.809 120.589 49.3795 116.258 49.3795 110.844V102.29C49.3795 96.8734 44.809 92.5441 39.0882 92.5441M39.0882 107.706C35.8888 107.706 33.375 105.321 33.375 102.292C33.375 99.2628 35.8888 96.876 39.0908 96.876C42.3917 96.876 44.8039 99.4761 44.8039 102.292C44.8039 105.321 42.2901 107.706 39.0882 107.706ZM63.0962 92.5467C67.8952 92.5467 71.7827 96.2285 71.7827 100.776V111.606H67.2122V100.776C67.2122 98.6102 65.2697 96.8785 63.0987 96.8785C60.9277 96.8785 58.8684 98.6102 58.8684 100.776V111.606H54.2979V100.776C54.2979 96.2285 58.2997 92.5467 63.1013 92.5467M96.136 92.5467C90.4178 92.5467 85.8498 96.8811 85.8498 102.295C85.8498 107.708 90.5346 112.04 96.0218 112.04C98.7666 112.04 100.94 110.958 102.426 109.224V111.608H106.542V102.295C106.427 96.8811 101.854 92.5492 96.131 92.5492M96.131 107.713C92.9316 107.713 90.4127 105.329 90.4127 102.297C90.4127 99.2654 92.9316 96.8811 96.131 96.8811C98.9901 96.8811 101.847 99.047 101.847 102.297C101.847 105.329 99.3329 107.713 96.131 107.713ZM24.1375 92.5518V111.743H19.4781V92.5391H24.1375V92.5518ZM16.3676 92.5518V96.9902H13.4679C12.0916 96.9725 10.9541 98.0618 10.9134 99.438V104.874C10.9134 108.65 7.66583 111.753 3.71994 111.753H0.82019V107.309H3.61329C4.98699 107.327 6.122 106.246 6.16771 104.872V99.4202C6.16771 95.647 9.41532 92.5441 13.478 92.5441H16.3778L16.3676 92.5518ZM81.7287 92.9834V111.626H77.1582V92.9707H81.7287V92.9834Z" fill="#58595B"/>
</svg>
