<svg width="30" height="31" viewBox="0 0 30 31" fill="none" xmlns="http://www.w3.org/2000/svg">
<circle cx="15" cy="15.5894" r="15" fill="white" fill-opacity="0.25"/>
<g clip-path="url(#clip0_9_1035)">
<path d="M12.1313 22.6923C18.4871 22.6923 21.964 17.4259 21.964 12.867C21.964 12.7196 21.964 12.5702 21.9577 12.4228C22.6346 11.9328 23.2188 11.3261 23.6829 10.6312C23.0506 10.91 22.3806 11.0937 21.6945 11.1765C22.4172 10.7445 22.9584 10.0649 23.2177 9.26384C22.5387 9.66608 21.7956 9.94845 21.0208 10.0986C20.5 9.54387 19.8107 9.17639 19.0599 9.05306C18.309 8.92974 17.5384 9.05744 16.8675 9.41641C16.1966 9.77537 15.6627 10.3456 15.3487 11.0386C15.0346 11.7317 14.9579 12.509 15.1303 13.2502C13.7563 13.1813 12.4122 12.8243 11.1851 12.2025C9.95795 11.5807 8.87523 10.7079 8.00714 9.64069C7.56644 10.4018 7.43195 11.3022 7.63097 12.1589C7.83 13.0156 8.34761 13.7644 9.07872 14.2533C8.53086 14.2347 7.99505 14.0876 7.5145 13.8238V13.8712C7.51545 14.6686 7.79167 15.4411 8.29648 16.0583C8.80128 16.6755 9.50371 17.0995 10.285 17.2586C9.98847 17.3403 9.68211 17.381 9.3745 17.3796C9.15765 17.3803 8.94122 17.3602 8.72819 17.3196C8.94902 18.006 9.379 18.6061 9.95792 19.0359C10.5368 19.4657 11.2357 19.7037 11.9566 19.7165C10.7319 20.6784 9.21914 21.2001 7.66187 21.1975C7.38747 21.1987 7.11327 21.1829 6.84082 21.1502C8.42136 22.1578 10.2569 22.6928 12.1313 22.6923Z" fill="white"/>
</g>
<defs>
<clipPath id="clip0_9_1035">
<rect width="16.8421" height="16.8421" fill="white" transform="translate(6.84082 6.90332)"/>
</clipPath>
</defs>
</svg>
