<svg width="20" height="19" viewBox="0 0 20 19" fill="none" xmlns="http://www.w3.org/2000/svg">
<rect x="1" width="18" height="18" rx="9" fill="#F1C72E"/>
<path d="M8.41997 11.4006L13.9006 5.9199C14.03 5.79056 14.1809 5.72589 14.3533 5.72589C14.5258 5.72589 14.6767 5.79056 14.806 5.9199C14.9353 6.04923 15 6.20293 15 6.38098C15 6.55904 14.9353 6.71252 14.806 6.84142L8.87265 12.7909C8.74332 12.9203 8.59242 12.9849 8.41997 12.9849C8.24752 12.9849 8.09663 12.9203 7.96729 12.7909L5.18654 10.0102C5.05721 9.88085 4.99512 9.72737 5.0003 9.54974C5.00547 9.37212 5.07294 9.21843 5.20271 9.08866C5.33248 8.95889 5.48618 8.89422 5.6638 8.89465C5.84142 8.89508 5.9949 8.95975 6.12424 9.08866L8.41997 11.4006Z" fill="#D1281D"/>
<path d="M2 17H18" stroke="#F1C72E" stroke-width="4" stroke-linecap="round"/>
</svg>
