<svg width="80" height="81" viewBox="0 0 80 81" fill="none" xmlns="http://www.w3.org/2000/svg">
<path d="M65.6954 56.7182L68.009 54.4047L66.1845 52.5802L63.8709 54.8937L61.4361 52.4589C63.3922 48.9376 64.5161 44.8937 64.5161 40.5892C64.5161 40.2215 64.4774 39.864 64.4606 39.5002C70.5238 38.0744 74.8387 32.7066 74.8387 26.3956H72.258C72.258 31.3789 68.9316 35.6408 64.209 36.9105C62.4245 25.135 52.2645 16.0731 40 16.0731C39.6322 16.0731 39.2748 16.1118 38.9109 16.1286C37.4851 10.0653 32.1174 5.75049 25.8064 5.75049V8.33113C30.7896 8.33113 35.0516 11.6576 36.3213 16.3802C24.5458 18.1647 15.4838 28.3247 15.4838 40.5892C15.4838 40.9569 15.5225 41.3144 15.5393 41.6782C9.47609 43.104 5.16125 48.4718 5.16125 54.7827H7.7419C7.7419 49.7995 11.0684 45.5376 15.7909 44.2679C17.5754 56.0434 27.7354 65.1053 40 65.1053C44.3045 65.1053 48.3484 63.9815 51.8684 62.0253L54.3032 64.4602L51.9896 66.7737L53.8142 68.5982L56.1277 66.2847L68.4516 78.6086C69.729 79.886 71.4284 80.5892 73.2348 80.5892C76.9651 80.5892 80 77.5544 80 73.8253C80 72.0189 79.2967 70.3195 78.0193 69.0421L65.6954 56.7182ZM40 18.6537C51.0064 18.6537 60.1174 26.8086 61.6748 37.3892L59.1316 37.8124C57.7793 28.4537 49.7277 21.2344 40 21.2344C39.9342 21.2344 39.8696 21.2434 39.8038 21.2447L39.378 18.686C39.5871 18.6795 39.7896 18.6537 40 18.6537ZM40 23.815C49.249 23.815 56.7742 31.3402 56.7742 40.5892C56.7742 49.8382 49.249 57.3634 40 57.3634C30.7509 57.3634 23.2258 49.8382 23.2258 40.5892C23.2258 31.3402 30.7509 23.815 40 23.815ZM18.0645 40.5892C18.0645 29.5827 26.2193 20.4718 36.8 18.9144L37.2232 21.4576C27.8645 22.8098 20.6451 30.8615 20.6451 40.5892C20.6451 40.655 20.6542 40.7195 20.6554 40.7853L18.0967 41.2111C18.0903 41.0021 18.0645 40.7995 18.0645 40.5892ZM40 62.5247C28.9935 62.5247 19.8825 54.3698 18.3251 43.7892L20.8684 43.366C22.2206 52.7247 30.2722 59.944 40 59.944C50.6722 59.944 59.3548 51.2615 59.3548 40.5892C59.3548 40.5234 59.3458 40.4589 59.3445 40.3931L61.9032 39.9673C61.9096 40.1763 61.9354 40.3789 61.9354 40.5892C61.9354 52.6847 52.0954 62.5247 40 62.5247ZM54.1032 60.6098C56.3974 58.9892 58.4 56.9866 60.0206 54.6924L62.0464 56.7182L56.129 62.6356L54.1032 60.6098ZM73.2361 78.0086C72.1187 78.0086 71.0671 77.5737 70.2774 76.784L57.9535 64.4602L63.8709 58.5427L76.1948 70.8666C76.9845 71.6563 77.4193 72.7079 77.4193 73.8253C77.4193 76.1324 75.5432 78.0086 73.2361 78.0086Z" fill="#ED7F1D"/>
<path d="M68.3871 23.8152C74.7909 23.8152 80 18.6061 80 12.2023C80 5.79839 74.7909 0.589355 68.3871 0.589355C61.9832 0.589355 56.7742 5.79839 56.7742 12.2023C56.7742 18.6061 61.9832 23.8152 68.3871 23.8152ZM72.258 20.3506C71.0826 20.9106 69.7729 21.2345 68.3871 21.2345C67.0013 21.2345 65.6916 20.9106 64.5161 20.3506V18.6539C64.5161 16.5197 66.2529 14.7829 68.3871 14.7829C70.5213 14.7829 72.258 16.5197 72.258 18.6539V20.3506ZM65.8064 9.62161C65.8064 8.19839 66.9638 7.04097 68.3871 7.04097C69.8103 7.04097 70.9677 8.19839 70.9677 9.62161C70.9677 11.0448 69.8103 12.2023 68.3871 12.2023C66.9638 12.2023 65.8064 11.0448 65.8064 9.62161ZM68.3871 3.17C73.3664 3.17 77.4193 7.2229 77.4193 12.2023C77.4193 14.6629 76.4271 16.8939 74.8258 18.5248C74.7819 16.3558 73.6735 14.4423 71.9922 13.3055C72.9497 12.3687 73.5484 11.0655 73.5484 9.62161C73.5484 6.77516 71.2335 4.46032 68.3871 4.46032C65.5406 4.46032 63.2258 6.77516 63.2258 9.62161C63.2258 11.0655 63.8245 12.3687 64.7819 13.3055C63.0993 14.4435 61.9909 16.3558 61.9484 18.5248C60.3471 16.8939 59.3548 14.6629 59.3548 12.2023C59.3548 7.2229 63.4077 3.17 68.3871 3.17Z" fill="#ED7F1D"/>
<path d="M11.6129 23.8152C18.0168 23.8152 23.2258 18.6061 23.2258 12.2023C23.2258 5.79839 18.0168 0.589355 11.6129 0.589355C5.20903 0.589355 0 5.79839 0 12.2023C0 18.6061 5.20903 23.8152 11.6129 23.8152ZM15.4839 20.3506C14.3084 20.9106 12.9987 21.2345 11.6129 21.2345C10.2271 21.2345 8.91742 20.9106 7.74194 20.3506V18.6539C7.74194 16.5197 9.47871 14.7829 11.6129 14.7829C13.7471 14.7829 15.4839 16.5197 15.4839 18.6539V20.3506ZM9.03226 9.62161C9.03226 8.19839 10.1897 7.04097 11.6129 7.04097C13.0361 7.04097 14.1935 8.19839 14.1935 9.62161C14.1935 11.0448 13.0361 12.2023 11.6129 12.2023C10.1897 12.2023 9.03226 11.0448 9.03226 9.62161ZM11.6129 3.17C16.5923 3.17 20.6452 7.2229 20.6452 12.2023C20.6452 14.6629 19.6529 16.8939 18.0516 18.5248C18.0077 16.3558 16.8994 14.4423 15.2181 13.3055C16.1755 12.3687 16.7742 11.0655 16.7742 9.62161C16.7742 6.77516 14.4594 4.46032 11.6129 4.46032C8.76645 4.46032 6.45161 6.77516 6.45161 9.62161C6.45161 11.0655 7.05032 12.3687 8.00774 13.3055C6.32645 14.4435 5.21807 16.3558 5.17419 18.5248C3.5729 16.8939 2.58065 14.6629 2.58065 12.2023C2.58065 7.2229 6.63355 3.17 11.6129 3.17Z" fill="#ED7F1D"/>
<path d="M11.6129 57.3638C5.20903 57.3638 0 62.5728 0 68.9767C0 75.3805 5.20903 80.5896 11.6129 80.5896C18.0168 80.5896 23.2258 75.3805 23.2258 68.9767C23.2258 62.5728 18.0168 57.3638 11.6129 57.3638ZM15.4839 77.1251C14.3084 77.6851 12.9987 78.0089 11.6129 78.0089C10.2271 78.0089 8.91742 77.6851 7.74194 77.1251V75.4283C7.74194 73.2941 9.47871 71.5573 11.6129 71.5573C13.7471 71.5573 15.4839 73.2941 15.4839 75.4283V77.1251ZM9.03226 66.396C9.03226 64.9728 10.1897 63.8154 11.6129 63.8154C13.0361 63.8154 14.1935 64.9728 14.1935 66.396C14.1935 67.8193 13.0361 68.9767 11.6129 68.9767C10.1897 68.9767 9.03226 67.8193 9.03226 66.396ZM18.0516 75.2993C18.0077 73.1302 16.8994 71.2167 15.2181 70.0799C16.1755 69.1431 16.7742 67.8399 16.7742 66.396C16.7742 63.5496 14.4594 61.2347 11.6129 61.2347C8.76645 61.2347 6.45161 63.5496 6.45161 66.396C6.45161 67.8399 7.05032 69.1431 8.00774 70.0799C6.32645 71.218 5.21807 73.1302 5.17419 75.2993C3.5729 73.6683 2.58065 71.4373 2.58065 68.9767C2.58065 63.9973 6.63355 59.9444 11.6129 59.9444C16.5923 59.9444 20.6452 63.9973 20.6452 68.9767C20.6452 71.4373 19.6529 73.6683 18.0516 75.2993Z" fill="#ED7F1D"/>
<path d="M25.8064 38.0086V44.4602V45.7506V47.0409H54.1935V45.7506V44.4602V32.8473H46.4516V44.4602H43.8709V27.686H36.129V44.4602H33.5483V38.0086H25.8064ZM49.0322 35.428H51.6128V44.4602H49.0322V35.428ZM38.7096 30.2667H41.2903V44.4602H38.7096V30.2667ZM30.9677 44.4602H28.387V40.5893H30.9677V44.4602Z" fill="#ED7F1D"/>
</svg>
