<svg width="129" height="81" viewBox="0 0 129 81" fill="none" xmlns="http://www.w3.org/2000/svg">
<path d="M113.788 47.2016L102.219 41.9475C101.535 41.6368 100.933 41.1743 100.454 40.5927L85.1281 19.5865L85.0787 19.5171C83.5585 17.6633 81.2884 16.5894 78.8928 16.5894H22.7439C19.1387 16.5894 15.983 19.0015 15.0313 22.4779L15.0213 22.5208L10.4645 41.518C10.2862 42.1854 10.1936 42.8793 10.1936 43.5732V66.1624C10.1936 70.5705 13.7689 74.1493 18.1837 74.1493H21.3394C21.7922 74.1493 22.2217 73.9477 22.5091 73.604C22.7999 73.2538 22.9156 72.7945 22.8363 72.3516C22.6976 71.6081 22.6183 70.8548 22.6183 70.0947C22.6216 66.6646 24.0128 63.5685 26.263 61.3116C28.5199 59.058 31.6163 57.67 35.0429 57.67C38.473 57.67 41.5725 59.058 43.826 61.3116C46.0796 63.5685 47.4676 66.6648 47.4676 70.0947C47.4676 70.8548 47.3883 71.6081 47.2527 72.3516C47.17 72.7945 47.2891 73.2538 47.5799 73.604C47.8641 73.9477 48.297 74.1493 48.7496 74.1493H78.9883C79.4411 74.1493 79.8673 73.9477 80.1581 73.604C80.4455 73.2538 80.5645 72.7945 80.4852 72.3516C80.3465 71.6081 80.2672 70.8548 80.2672 70.0947C80.2672 66.6646 81.6583 63.5685 83.9119 61.3116C86.1655 59.058 89.2618 57.67 92.6918 57.67C96.1185 57.67 99.218 59.058 101.475 61.3116C103.729 63.5685 105.117 66.6648 105.12 70.0947C105.12 70.8548 105.037 71.6081 104.902 72.3516C104.819 72.7945 104.938 73.2538 105.229 73.604C105.513 73.9477 105.946 74.1493 106.399 74.1493H110.483C114.898 74.1493 118.473 70.5705 118.473 66.1624V54.4779C118.473 51.3452 116.643 48.5035 113.788 47.2016ZM19.6311 71.1058H18.1837C16.8156 71.1058 15.5864 70.5572 14.6876 69.6584C14.0466 69.0174 13.5905 68.211 13.3758 67.2991H19.8425C19.6774 68.2112 19.5782 69.143 19.5782 70.0947C19.5782 70.4383 19.6046 70.7752 19.6311 71.1058ZM20.0012 66.5424H13.2536C13.247 66.4136 13.2337 66.2912 13.2337 66.1624V61.979H21.9045C21.0387 63.3701 20.3911 64.9066 20.0012 66.5424ZM77.2736 71.1058H50.4613C50.4878 70.7687 50.5142 70.4383 50.5142 70.0947C50.5142 69.143 50.415 68.2112 50.2465 67.2991H77.4915C77.3229 68.2112 77.2237 69.143 77.2237 70.0947C77.2239 70.4383 77.2538 70.7687 77.2736 71.1058ZM77.6503 66.5424H50.0847C49.6981 64.9068 49.0503 63.3701 48.1879 61.979H79.5469C78.6878 63.3701 78.0403 64.9066 77.6503 66.5424ZM13.2337 53.9887V43.5732C13.2337 43.1369 13.2931 42.6942 13.4122 42.2713L13.4255 42.225L17.1726 26.5885H22.1854C22.8397 26.5885 23.3716 26.0598 23.3716 25.4055V19.6292H68.7678C68.7678 19.6491 68.7612 19.669 68.7612 19.6886V25.4053C68.7612 26.0596 69.2933 26.5883 69.9443 26.5883H85.6338C85.8817 26.5883 86.1162 26.509 86.3112 26.3703L98.032 42.4364L98.0849 42.5026C98.8581 43.4509 99.843 44.2078 100.96 44.7167L112.529 49.9773C114.148 50.7109 115.222 52.2508 115.394 53.9889H13.2337V53.9887ZM113.979 69.6584C113.08 70.5572 111.851 71.1058 110.483 71.1058H108.11C108.137 70.7687 108.163 70.4383 108.163 70.0947C108.16 69.143 108.064 68.2112 107.896 67.2991H115.291C115.076 68.211 114.62 69.0174 113.979 69.6584ZM115.433 66.1624C115.433 66.2912 115.42 66.4136 115.413 66.5424H107.734C107.344 64.9068 106.699 63.3701 105.837 61.979H115.433V66.1624H115.433Z" fill="#ED7F1D"/>
<path d="M35.0428 59.5933C29.2469 59.5933 24.548 64.2954 24.548 70.0947C24.548 75.8906 29.2469 80.5896 35.0428 80.5896C40.8421 80.5896 45.5443 75.8906 45.5443 70.0947C45.5443 64.2956 40.8421 59.5933 35.0428 59.5933ZM35.0428 74.3906C32.6702 74.3906 30.7438 72.4673 30.7438 70.0947C30.7438 67.7155 32.6702 65.7923 35.0428 65.7923C37.4187 65.7923 39.3453 67.7155 39.3453 70.0947C39.3453 72.4673 37.4187 74.3906 35.0428 74.3906Z" fill="#ED7F1D"/>
<path d="M92.692 59.5933C86.8961 59.5933 82.1971 64.2954 82.1971 70.0947C82.1971 75.8906 86.8961 80.5896 92.692 80.5896C98.4879 80.5896 103.19 75.8906 103.19 70.0947C103.19 64.2956 98.4879 59.5933 92.692 59.5933ZM92.692 74.3906C90.3194 74.3906 88.393 72.4673 88.393 70.0947C88.393 67.7155 90.3194 65.7923 92.692 65.7923C95.0678 65.7923 96.9944 67.7155 96.9944 70.0947C96.9944 72.4673 95.0678 74.3906 92.692 74.3906Z" fill="#ED7F1D"/>
<path d="M85.8816 32.054V32.0606C85.5379 31.5782 84.9794 31.2939 84.3946 31.2939H70.3077C69.2932 31.2939 68.4703 32.1168 68.4703 33.1313V46.9537C68.4703 47.9682 69.2932 48.791 70.3077 48.791H94.3938C95.0845 48.791 95.7189 48.4044 96.0294 47.7899C96.1681 47.5255 96.2343 47.2381 96.2343 46.9539C96.2343 46.5738 96.1152 46.1906 95.8841 45.8734L85.8816 32.054ZM94.6778 47.0958C94.6215 47.2015 94.5158 47.2709 94.3936 47.2709H70.3077C70.1358 47.2709 69.9905 47.1288 69.9905 46.9537V33.1313C69.9905 32.9594 70.136 32.8175 70.3077 32.8175H84.3944C84.4968 32.8175 84.5928 32.867 84.6488 32.9463V32.9497L94.6547 46.7655L94.711 46.9539L94.6778 47.0958Z" fill="#ED7F1D"/>
<path d="M45.6304 27.7451H39.5435V34.02H33.2717V40.107H39.5435V46.3821H45.6304V40.107H51.9053V34.02H45.6304V27.7451Z" fill="#ED7F1D"/>
</svg>
