<svg width="79" height="81" viewBox="0 0 79 81" fill="none" xmlns="http://www.w3.org/2000/svg">
<path fill-rule="evenodd" clip-rule="evenodd" d="M23.7378 9.78623L23.857 9.26616C24.0845 8.2997 24.4572 6.87817 25.2265 5.47832C26.011 4.05246 27.2266 2.6071 29.1335 1.65581C31.034 0.70885 33.4154 0.355636 36.3603 0.745689C39.6108 1.17908 46.1398 2.25389 51.9082 5.18795C57.7092 8.13934 63.1439 13.2165 63.1439 21.672C63.1439 26.0406 61.4537 30.7277 59.8155 33.7831C59.0289 35.2523 58.0949 36.6565 57.1588 37.4128C56.9442 37.5861 56.6387 37.8028 56.2595 37.9545C55.2193 41.373 53.1486 44.3868 50.3306 46.5838C47.5126 48.7809 44.0848 50.0539 40.5158 50.2289C36.9469 50.404 33.4109 49.4724 30.3915 47.5616C27.3721 45.6508 25.0165 42.854 23.6468 39.5537L23.5948 39.5624L22.8255 38.6284L22.8234 38.6241L22.819 38.6197L22.8082 38.6046L22.7713 38.5612C22.5861 38.3303 22.4076 38.094 22.2361 37.8526C21.7693 37.2029 21.3283 36.535 20.9143 35.8504C19.8958 34.1645 18.6671 31.7635 17.8805 28.9616C17.0961 26.1597 16.7364 22.8746 17.5598 19.4855C18.3616 16.1874 20.2533 12.9413 23.6793 10.0419L23.7378 9.78623ZM27.3783 37.1722C28.3181 39.8749 30.1229 42.1924 32.5131 43.7656C34.9032 45.3388 37.7454 46.08 40.5995 45.8744C43.4536 45.6688 46.1602 44.5279 48.3002 42.6283C50.4402 40.7288 51.8942 38.1767 52.437 35.3671L52.6819 35.4495C52.6723 35.3269 52.668 35.204 52.6688 35.0811C52.6688 31.4948 52.1704 28.992 51.7067 27.4318C51.6158 27.1282 51.5153 26.8276 51.4055 26.5303L51.3167 26.5346H51.23C49.6096 26.5694 47.9897 26.446 46.3933 26.1663C42.6727 25.5378 37.6345 23.969 31.7014 20.335C31.5714 20.6253 31.4413 20.9526 31.3113 21.3166C30.8866 22.5193 30.5377 23.9473 30.2365 25.4555C29.97 26.7838 29.7511 28.1208 29.5431 29.3733L29.4629 29.8674C29.2397 31.2109 29.0165 32.5306 28.7565 33.4862C28.3014 35.1461 27.8377 36.3249 27.3783 37.1701M24.3446 33.133C23.3668 31.4525 22.5983 29.6586 22.0563 27.7915C21.4083 25.4815 21.17 22.9808 21.7724 20.5083C22.3575 18.103 23.7725 15.5742 26.6827 13.1775C27.2071 12.8221 27.4455 12.3454 27.5105 12.2176V12.2154C27.6233 11.9807 27.7146 11.7363 27.7835 11.4851C27.8529 11.2381 27.9287 10.9 28.0002 10.5967L28.0761 10.2565C28.2819 9.38318 28.5485 8.43188 29.0252 7.56293C29.4889 6.72215 30.1238 6.00272 31.0686 5.5325C32.0178 5.05793 33.4869 4.73289 35.7883 5.0406C38.9368 5.45882 44.8591 6.46212 49.9428 9.04947C54.9918 11.6173 58.81 15.5048 58.81 21.6698C58.81 24.5085 57.8565 27.7373 56.7081 30.2835C56.4914 28.6236 56.1793 27.2671 55.8586 26.1923C55.6327 25.4249 55.3539 24.674 55.0243 23.9451C54.898 23.6759 54.7606 23.4121 54.6126 23.1542L54.5758 23.0957L54.5628 23.074L54.5563 23.0632L54.5519 23.0567L53.7502 21.8128L52.3156 22.101L52.2853 22.1075L52.0751 22.1357C51.7526 22.1719 51.4287 22.1936 51.1043 22.2007C49.7683 22.2264 48.4329 22.1219 47.1171 21.8887C43.6218 21.2993 38.4861 19.6936 32.2475 15.5395L30.7306 14.5275L29.4759 15.8494C28.4423 16.9372 27.7402 18.4215 27.2266 19.8669C26.7022 21.3513 26.3057 23.009 25.9871 24.5995C25.7229 25.9531 25.483 27.3113 25.2677 28.6734L25.1853 29.1588C24.9535 30.5695 24.765 31.6465 24.5743 32.3442C24.4962 32.6317 24.4197 32.8947 24.3446 33.133Z" fill="#ED7F1D"/>
<path fill-rule="evenodd" clip-rule="evenodd" d="M26.4787 52.1051C26.0193 51.1906 25.4538 50.0616 24.4981 50.2805C12.7879 52.9458 0.661621 60.6407 0.661621 68.8231V80.5897H78.672V68.8231C78.672 62.3786 71.1484 56.2353 62.2313 52.6143L62.2205 52.5926L62.1902 52.5341L62.1187 52.5688C59.7502 51.6153 57.2842 50.8352 54.8355 50.2805C53.7455 50.0313 52.6187 51.5308 52.1268 52.4691H26.6651L26.4787 52.1051ZM55.7088 54.9654C56.6565 55.2284 57.5962 55.5224 58.528 55.8474C58.554 56.5885 58.4977 57.4639 58.3763 58.3567C58.2536 59.2812 58.0565 60.1943 57.7869 61.0871H54.8355C54.4332 61.0873 54.0389 61.1995 53.6967 61.4112C53.3546 61.6228 53.0781 61.9255 52.8983 62.2854L50.7313 66.6193C50.5806 66.92 50.502 67.2516 50.5016 67.588V71.9219C50.5016 72.4966 50.7299 73.0478 51.1363 73.4541C51.5427 73.8605 52.0939 74.0888 52.6686 74.0888H57.0025V69.7549H54.8355V68.0994L56.1747 65.421H62.1642L63.5033 68.0994V69.7549H61.3364V74.0888H65.6703C66.245 74.0888 66.7962 73.8605 67.2026 73.4541C67.609 73.0478 67.8373 72.4966 67.8373 71.9219V67.588C67.8369 67.2516 67.7583 66.92 67.6076 66.6193L65.4406 62.2854C65.2608 61.9255 64.9843 61.6228 64.6421 61.4112C64.3 61.1995 63.9057 61.0873 63.5033 61.0871H62.2768C62.5419 59.9398 62.7215 58.7744 62.8143 57.6005C64.927 58.5994 66.8903 59.7457 68.5914 60.9852C72.7563 64.0233 74.3381 66.8664 74.3381 68.8231V76.2558H4.99553V68.8231C4.99553 66.8664 6.57741 64.0233 10.7423 60.9852C12.8356 59.4575 15.3341 58.075 18.0124 56.9309C18.0873 58.6576 18.3643 60.3697 18.838 62.0319L18.8554 62.0926C17.5599 62.9121 16.5957 64.1631 16.1331 65.6246C15.6705 67.0861 15.7393 68.6641 16.3272 70.0798C16.9152 71.4955 17.9846 72.6579 19.3464 73.3617C20.7083 74.0654 22.275 74.2653 23.77 73.926C25.2649 73.5866 26.5918 72.7299 27.5164 71.5071C28.4409 70.2844 28.9036 68.7742 28.8227 67.2434C28.7419 65.7126 28.1226 64.2596 27.0744 63.141C26.0261 62.0225 24.6163 61.3104 23.094 61.1304L22.9986 60.8184C22.7695 60.0112 22.5993 59.1885 22.4894 58.3567C22.3679 57.5166 22.3172 56.6678 22.3377 55.8192C22.3449 55.6372 22.3557 55.4754 22.3702 55.3338C22.6302 55.2529 22.8903 55.1756 23.1503 55.102L24.0496 56.8052H54.7423L55.7088 54.9654ZM22.3312 69.7896C23.497 69.7896 24.4981 68.8361 24.4981 67.5901C24.4981 66.3463 23.497 65.3907 22.3312 65.3907C21.1654 65.3907 20.1642 66.3441 20.1642 67.5901C20.1642 68.834 21.1654 69.7896 22.3312 69.7896Z" fill="#ED7F1D"/>
</svg>
