<svg width="80" height="81" viewBox="0 0 80 81" fill="none" xmlns="http://www.w3.org/2000/svg">
<g clip-path="url(#clip0_14_202)">
<path d="M64.775 27.2644V12.0144H53.35V0.589355H26.675V12.0144H15.25V27.2644H0V80.5894H80V27.2644H64.775ZM34.3 12.0144H38.1V8.21436H41.925V12.0144H45.725V15.8394H41.925V19.6394H38.1V15.8394H34.3V12.0144ZM3.825 31.0644H15.25V69.1644H3.825V31.0644ZM22.875 76.7894H3.825V72.9893H22.875V76.7894ZM53.35 76.7894H26.675V72.9893H53.35V76.7894ZM30.5 69.1644V50.1144H38.1V69.1644H30.5ZM41.925 69.1644V50.1144H49.525V69.1644H41.925ZM26.675 46.3144V69.1644H19.05V15.8394H26.675V27.2644H53.35V15.8394H60.975V69.1644H53.35V46.3144H26.675ZM76.2 76.7894H57.15V72.9893H76.2V76.7894ZM76.2 69.1644H64.775V31.0644H76.2V69.1644Z" fill="#ED7F1D"/>
<path d="M68.5745 57.739H72.3995V61.539H68.5745V57.739ZM68.5745 50.114H72.3995V53.939H68.5745V50.114ZM68.5745 42.514H72.3995V46.314H68.5745V42.514ZM68.5745 34.889H72.3995V38.689H68.5745V34.889ZM49.5245 38.689H57.1495V42.514H49.5245V38.689ZM49.5245 31.064H57.1495V34.889H49.5245V31.064ZM34.2995 38.689H45.7245V42.514H34.2995V38.689ZM34.2995 31.064H45.7245V34.889H34.2995V31.064ZM22.8745 38.689H30.4995V42.514H22.8745V38.689ZM22.8745 31.064H30.4995V34.889H22.8745V31.064ZM7.62451 57.739H11.4495V61.539H7.62451V57.739ZM7.62451 50.114H11.4495V53.939H7.62451V50.114ZM7.62451 42.514H11.4495V46.314H7.62451V42.514ZM7.62451 34.889H11.4495V38.689H7.62451V34.889Z" fill="#ED7F1D"/>
</g>
<defs>
<clipPath id="clip0_14_202">
<rect width="80" height="80" fill="white" transform="translate(0 0.589355)"/>
</clipPath>
</defs>
</svg>
