<svg width="67" height="82" viewBox="0 0 67 82" fill="none" xmlns="http://www.w3.org/2000/svg">
<path d="M38.6666 0.339355C40.566 0.339357 42.1985 1.43078 43.0162 3.00635H45.8942C47.9612 3.00635 49.8085 4.07937 50.8317 5.87451C51.8548 7.66981 51.8366 9.8072 50.7828 11.5845L33.5563 40.7192C32.8008 41.9916 31.6203 42.8866 30.2496 43.2788V51.0063H44.5436C45.3145 45.7361 49.8519 41.6724 55.3336 41.6724C61.3529 41.6725 66.2496 46.5701 66.2496 52.5894C66.2496 58.6087 61.3529 63.5062 55.3336 63.5063C49.8519 63.5063 45.3145 59.4426 44.5436 54.1724H30.2496V65.9224C30.2496 74.147 23.5582 80.8392 15.3336 80.8394C7.10888 80.8394 0.416626 74.1471 0.416626 65.9224C0.416804 57.6978 7.10899 51.0063 15.3336 51.0063H27.0836V43.2788C25.7131 42.8868 24.5322 41.9938 23.778 40.7212V40.7202L6.06995 11.6001L6.06897 11.5981C5.00735 9.80786 4.98903 7.67216 6.01233 5.87646C7.03533 4.08133 8.88175 3.0065 10.9489 3.00635H14.317C15.1347 1.43078 16.7673 0.339355 18.6666 0.339355C19.7752 0.339356 21.6469 0.760315 23.2438 1.56299C24.8237 2.35718 26.2496 3.58676 26.2496 5.25635C26.2494 6.92585 24.8236 8.15557 23.2438 8.94971C21.6469 9.75237 19.7752 10.1724 18.6666 10.1724C16.2694 10.1724 14.2876 8.44326 13.8551 6.17236H10.9489C10.0337 6.17252 9.21851 6.64729 8.76428 7.44385H8.76331C8.30937 8.23891 8.31825 9.1831 8.78577 9.97119H8.78479L26.4918 39.0913L26.4938 39.0933C26.9612 39.8796 27.769 40.3394 28.6666 40.3394C29.565 40.3394 30.3731 39.8789 30.8307 39.1069L48.0563 9.97314L48.0573 9.97217C48.4955 9.23195 48.5303 8.35581 48.1588 7.59424L48.0787 7.44385C47.6259 6.64738 46.81 6.17236 45.8932 6.17236H43.4762C43.0448 8.44326 41.0637 10.1724 38.6666 10.1724C37.5581 10.1724 35.6863 9.75237 34.0895 8.94971C32.5096 8.15557 31.0838 6.92585 31.0836 5.25635C31.0836 3.58676 32.5096 2.35718 34.0895 1.56299C35.6863 0.760315 37.5581 0.339355 38.6666 0.339355ZM15.3336 54.1724C8.85578 54.1724 3.5838 59.4433 3.58362 65.9224C3.58362 72.4016 8.85567 77.6724 15.3336 77.6724C21.8114 77.6722 27.0836 72.4015 27.0836 65.9224V54.1724H15.3336ZM55.3336 44.8394C51.0597 44.8394 47.5836 48.3154 47.5836 52.5894C47.5836 56.8633 51.0597 60.3394 55.3336 60.3394C59.6074 60.3392 63.0836 56.8632 63.0836 52.5894C63.0836 48.3155 59.6074 44.8395 55.3336 44.8394ZM18.6666 3.50635C17.702 3.50635 16.9166 4.29175 16.9166 5.25635C16.9168 6.22079 17.7021 7.00635 18.6666 7.00635C19.4383 7.00635 20.5199 6.69178 21.444 6.28271C21.9028 6.0796 22.311 5.85791 22.6119 5.6499C22.7627 5.54572 22.881 5.44857 22.9645 5.36279C23.0062 5.31989 23.034 5.28369 23.0533 5.25537C23.034 5.22719 23.0058 5.19138 22.9645 5.14893C22.881 5.06319 22.7626 4.96594 22.6119 4.86182C22.311 4.65384 21.9027 4.43209 21.444 4.229C20.52 3.81997 19.4383 3.50635 18.6666 3.50635ZM38.6666 3.50635C37.895 3.50635 36.8133 3.81997 35.8893 4.229C35.4306 4.43209 35.0222 4.65384 34.7213 4.86182C34.5707 4.96594 34.4522 5.06319 34.3688 5.14893C34.3272 5.19161 34.2983 5.22712 34.2789 5.25537C34.2983 5.28376 34.3268 5.31966 34.3688 5.36279C34.4522 5.44857 34.5706 5.54572 34.7213 5.6499C35.0222 5.85791 35.4305 6.0796 35.8893 6.28271C36.8133 6.69178 37.895 7.00635 38.6666 7.00635C39.6311 7.00635 40.4164 6.22079 40.4166 5.25635C40.4166 4.29175 39.6312 3.50635 38.6666 3.50635Z" fill="#ED7F1D" stroke="#ED7F1D" stroke-width="0.5"/>
<path d="M55.333 47.0059C58.4123 47.0059 60.9168 49.5096 60.917 52.5889C60.917 55.6683 58.4124 58.1729 55.333 58.1729C52.2538 58.1727 49.75 55.6682 49.75 52.5889C49.7502 49.5097 52.2539 47.006 55.333 47.0059ZM55.333 50.1729C54.0007 50.173 52.9172 51.2565 52.917 52.5889C52.917 53.9214 54.0006 55.0057 55.333 55.0059C56.6656 55.0059 57.75 53.9215 57.75 52.5889C57.7498 51.2564 56.6655 50.1729 55.333 50.1729Z" fill="#ED7F1D" stroke="#ED7F1D" stroke-width="0.5"/>
</svg>
