<svg width="82" height="83" viewBox="0 0 82 83" fill="none" xmlns="http://www.w3.org/2000/svg">
<path d="M12.3676 80.6846L2.84375 71.1608V29.256C10.4628 29.256 16.1771 33.0655 16.1771 40.6846V52.1132M69.6323 80.6846L79.1561 71.1608V29.256C71.5371 29.256 65.8228 33.0655 65.8228 40.6846V52.1132M48.558 14.0179V2.58936H33.3199V14.0179H21.8914V29.256H33.3199V40.6846H48.558V29.256H59.9866V14.0179H48.558Z" stroke="#ED7F1D" stroke-width="4"/>
<path d="M20.5806 68.635L16.733 64.7874C12.1158 60.1702 13.2701 54.3988 17.8873 49.7778L33.3273 65.2216V82.5893M61.4187 68.635L65.2663 64.7874C69.8834 60.1702 68.733 54.3988 64.112 49.7778L48.672 65.2216V82.5893" stroke="#ED7F1D" stroke-width="4"/>
</svg>
