<svg width="82" height="78" viewBox="0 0 82 78" fill="none" xmlns="http://www.w3.org/2000/svg">
<path d="M42.3855 34.0034V39.5298H39.4529V34.0034H42.3855Z" fill="#ED7F1D" stroke="#ED7F1D" stroke-width="0.5"/>
<path d="M23.7383 46.6509V54.1099H31.1973V63.3657H23.7383V70.8247H14.4824V63.3657H7.02344V54.1099H14.4824V46.6509H23.7383ZM17.4141 57.0415H9.95605V60.4331H17.4141V67.8921H20.8057V60.4331H28.2646V57.0415H20.8057V49.5825H17.4141V57.0415Z" fill="#ED7F1D" stroke="#ED7F1D" stroke-width="0.5"/>
<path d="M66.2205 54.1099V57.0425H35.7234V54.1099H66.2205Z" fill="#ED7F1D" stroke="#ED7F1D" stroke-width="0.5"/>
<path d="M53.7351 59.1362V62.0688H35.7234V59.1362H53.7351Z" fill="#ED7F1D" stroke="#ED7F1D" stroke-width="0.5"/>
<path d="M39.9529 64.1626V67.0952H35.7234V64.1626H39.9529Z" fill="#ED7F1D" stroke="#ED7F1D" stroke-width="0.5"/>
<path d="M44.9792 64.1626V67.0952H40.7498V64.1626H44.9792Z" fill="#ED7F1D" stroke="#ED7F1D" stroke-width="0.5"/>
<path d="M50.0059 64.1626V67.0952H45.7764V64.1626H50.0059Z" fill="#ED7F1D" stroke="#ED7F1D" stroke-width="0.5"/>
<path d="M55.0325 64.1626V67.0952H50.803V64.1626H55.0325Z" fill="#ED7F1D" stroke="#ED7F1D" stroke-width="0.5"/>
<path d="M74.9763 67.8921V70.8247H61.991V67.8921H74.9763Z" fill="#ED7F1D" stroke="#ED7F1D" stroke-width="0.5"/>
<path d="M20.0088 15.3569V20.3569H61.9912V15.3569H77.5703V20.3569H81.25V77.0864H0.75V20.3569H4.42871V15.3569H20.0088ZM3.68262 32.8687H6.22656V35.8013H3.68262V74.1538H78.3174V35.8013H75.7734V32.8687H78.3174V23.2896H3.68262V32.8687ZM64.9229 20.3569H74.6387V18.2896H64.9229V20.3569ZM7.36133 20.3569H17.0762V18.2896H7.36133V20.3569Z" fill="#ED7F1D" stroke="#ED7F1D" stroke-width="0.5"/>
<path d="M51.2236 29.1143V32.8682H74.9766V35.8008H51.2236V44.5576H30.7764V35.8008H7.02344V32.8682H30.7764V29.1143H51.2236ZM33.709 35.3008H38.8184V38.2324H33.709V41.625H48.292V38.2324H43.1826V35.3008H48.292V32.0469H33.709V35.3008Z" fill="#ED7F1D" stroke="#ED7F1D" stroke-width="0.5"/>
<path d="M27.467 2.87158V5.8042H24.8733V19.5864H20.8059V16.6538H21.9407V2.87158H27.467Z" fill="#ED7F1D" stroke="#ED7F1D" stroke-width="0.5"/>
<path d="M53.7263 0.339355V8.27588H28.2742V0.339355H53.7263ZM31.2068 5.34326H50.7937V3.27197H31.2068V5.34326Z" fill="#ED7F1D" stroke="#ED7F1D" stroke-width="0.5"/>
<path d="M60.0586 2.87158V16.6538H61.1934V19.5864H57.127V5.8042H54.5322V2.87158H60.0586Z" fill="#ED7F1D" stroke="#ED7F1D" stroke-width="0.5"/>
</svg>
