<svg width="93" height="81" viewBox="0 0 93 81" fill="none" xmlns="http://www.w3.org/2000/svg">
<path d="M87.5061 0.589355H5.82723C3.00476 0.589355 0.709229 2.87327 0.709229 5.68076V51.6532V55.0574V68.6745H35.5753L31.4855 78.2174C31.2594 78.7426 31.3134 79.346 31.6284 79.8247C31.9434 80.3018 32.4778 80.5894 33.0497 80.5894H60.2837C60.8555 80.5894 61.3899 80.3018 61.7049 79.8247C62.0199 79.346 62.0739 78.7426 61.8478 78.2174L57.758 68.6745H92.6241V55.0574V51.6532V5.68076C92.6241 2.87327 90.3286 0.589355 87.5061 0.589355ZM57.7022 77.1851H35.6311L39.278 68.6745H54.0553L57.7022 77.1851ZM89.2199 65.2702H55.1773H38.156H4.11348V55.0574H89.2199V65.2702ZM4.11348 51.6532V5.68076C4.11348 4.74991 4.88225 3.99361 5.82723 3.99361H87.5061C88.4511 3.99361 89.2199 4.74991 89.2199 5.68076V51.6532H4.11348Z" fill="#ED7F1D"/>
<path d="M46.6667 63.5683C48.5442 63.5683 50.071 62.0407 50.071 60.164C50.071 58.2873 48.5442 56.7598 46.6667 56.7598C44.7892 56.7598 43.2625 58.2873 43.2625 60.164C43.2625 62.0407 44.7892 63.5683 46.6667 63.5683Z" fill="#ED7F1D"/>
<path d="M61.11 26.6558L61.1191 26.6466C65.0952 22.6689 65.0918 16.1945 61.11 12.2118C59.1843 10.2852 56.6219 9.22309 53.8959 9.21973C53.8917 9.21973 53.8876 9.21973 53.8834 9.21973C51.159 9.21973 48.5992 10.2802 46.6768 12.2034L46.6668 12.2134L46.6569 12.2035C42.6816 8.22909 36.2064 8.22739 32.2229 12.2118C28.2427 16.1945 28.2385 22.6705 32.2146 26.6466L32.2237 26.6558L32.2146 26.6649C30.2855 28.5948 29.225 31.1579 29.2275 33.884C29.2309 36.6084 30.2947 39.1699 32.2237 41.0981C34.1494 43.0246 36.7118 44.0867 39.4378 44.0901C39.442 44.0901 39.4461 44.0901 39.4503 44.0901C42.1746 44.0901 44.7337 43.0312 46.6569 41.108L46.6668 41.0981L46.6768 41.108C48.664 43.0944 51.2737 44.0884 53.8851 44.0884C56.5006 44.0884 59.1178 43.091 61.11 41.0981C63.0357 39.1732 64.0986 36.61 64.102 33.884C64.1045 31.1546 63.0456 28.5898 61.1191 26.6649L61.11 26.6558ZM49.0837 14.6104H49.0846C50.3637 13.3304 52.0683 12.624 53.8834 12.624C53.8867 12.624 53.8892 12.624 53.8917 12.624C55.7102 12.6273 57.419 13.3354 58.703 14.6187C61.3568 17.2733 61.3609 21.5901 58.7122 24.2397L58.7029 24.2489L49.0738 14.6202L49.0837 14.6104ZM56.296 26.6558L46.6668 36.2844L37.0376 26.6558L46.6668 17.0272L56.296 26.6558ZM34.6215 24.2397C31.9727 21.5901 31.9769 17.2733 34.6306 14.6187C37.2844 11.9657 41.5995 11.9607 44.25 14.6104L44.2598 14.6202L34.6307 24.249L34.6215 24.2397ZM44.2499 38.7011C42.97 39.981 41.2654 40.6859 39.4502 40.6859C39.4469 40.6859 39.4444 40.6859 39.4419 40.6859C37.6235 40.6842 35.9146 39.9761 34.6306 38.6912C33.3441 37.4046 32.6343 35.6958 32.6318 33.8807C32.6301 32.0655 33.3365 30.3567 34.6215 29.0718L34.6307 29.0626L44.2598 38.6913L44.2499 38.7011ZM58.7031 38.6912C56.0477 41.3458 51.7325 41.3491 49.0837 38.7011L49.0738 38.6913L58.7029 29.0626L58.7122 29.0718C59.9946 30.3534 60.6994 32.0621 60.6977 33.8807C60.6952 35.6991 59.9871 37.4079 58.7031 38.6912Z" fill="#ED7F1D"/>
<path d="M11.0296 19.2371C10.5939 19.2371 10.1583 19.0708 9.8259 18.7384C9.16122 18.0739 9.16122 16.996 9.8259 16.3315L15.8438 10.3138C16.5089 9.64931 17.5865 9.64931 18.2511 10.3138C18.9158 10.9782 18.9158 12.0562 18.2511 12.7207L12.2333 18.7384C11.9008 19.0708 11.4651 19.2371 11.0296 19.2371Z" fill="#ED7F1D"/>
<path d="M17.0475 19.2374C16.6118 19.2374 16.1762 19.0712 15.8438 18.7387L9.8259 12.721C9.16122 12.0565 9.16122 10.9786 9.8259 10.3141C10.4908 9.64921 11.5683 9.64921 12.2332 10.3141L18.2511 16.3318C18.9158 16.9963 18.9158 18.0742 18.2511 18.7387C17.9187 19.0711 17.4832 19.2374 17.0475 19.2374Z" fill="#ED7F1D"/>
<path d="M78.2636 48.1732C74.9786 48.1732 72.3062 45.5007 72.3062 42.2157C72.3062 38.9308 74.9786 36.2583 78.2636 36.2583C81.5486 36.2583 84.221 38.9308 84.221 42.2157C84.221 45.5007 81.5486 48.1732 78.2636 48.1732ZM78.2636 39.6626C76.8557 39.6626 75.7104 40.8078 75.7104 42.2157C75.7104 43.6237 76.8557 44.7689 78.2636 44.7689C79.6715 44.7689 80.8168 43.6237 80.8168 42.2157C80.8168 40.8078 79.6715 39.6626 78.2636 39.6626Z" fill="#ED7F1D"/>
</svg>
