<svg width="35" height="48" viewBox="0 0 35 48" fill="none" xmlns="http://www.w3.org/2000/svg">
<g clip-path="url(#clip0_116_395)">
<path d="M11.62 47.9557C10.6465 47.8618 10.0402 47.7337 9.16063 47.4263C7.35024 46.7858 5.87288 45.7781 4.69442 44.3691C3.3964 42.8234 2.50828 40.3384 2.60221 38.5195L2.62783 38.0071H3.82338H5.01892L5.08724 38.6049C5.41175 41.645 7.33316 44.0702 10.2452 45.1291C12.9351 46.1112 16.0179 45.3768 18.1443 43.2419C18.8275 42.5672 19.2715 41.9012 19.8095 40.7825C20.3219 39.7236 21.0392 38.2206 21.5431 37.1531C21.7651 36.6835 22.1408 35.8978 22.3799 35.4025C22.9436 34.1984 23.4645 33.0968 23.8061 32.371C24.8906 30.0226 27.2646 25.0098 28.4174 22.6358C29.6472 20.091 29.9802 19.0833 30.1681 17.3156C30.5267 14.0791 29.0323 10.3644 26.3509 7.81104C24.66 6.2056 22.5337 5.09545 20.1084 4.54891C18.9129 4.28418 16.4022 4.28418 15.2067 4.54891C10.0744 5.70176 6.26571 9.45065 5.26657 14.3353C5.12994 15.0185 4.95915 18.6905 5.036 19.4505L5.08724 19.9287L7.48687 19.9714C9.41682 19.9971 9.98898 20.0398 10.3989 20.1508C12.0641 20.629 13.328 21.9099 13.7806 23.5752C14.0197 24.4547 13.977 25.6332 13.661 26.6238C13.3707 27.529 13.1059 27.9474 12.4313 28.5623C11.7567 29.1857 10.8942 29.6297 10.0146 29.8176C9.16063 29.9969 6.83786 29.9457 5.91558 29.7237C3.11459 29.0576 1.30419 27.2216 0.74912 24.506C0.629565 23.8911 0.612486 23.2165 0.646645 18.9552L0.680803 14.0962L0.902833 13.0714C2.11546 7.54631 5.68501 3.37899 11.1418 1.12453C13.8318 0.0143804 17.8967 -0.310125 21.2015 0.313267C25.1639 1.06475 28.7078 3.19965 31.2355 6.35931C33.7462 9.51042 34.9502 13.5326 34.6172 17.6401C34.3952 20.3557 33.8486 22.0124 31.7479 26.3078C31.0562 27.7169 30.9366 27.8962 30.373 28.4684C29.8863 28.9551 29.6045 29.1601 29.0323 29.4248C28.6309 29.6127 28.2552 29.7664 28.1869 29.7664C28.1186 29.7664 27.999 29.8347 27.9307 29.9201C27.7855 30.0738 26.9572 31.8073 25.0614 35.8722C22.2689 41.867 21.1502 43.9592 20.1938 44.984C19.3569 45.8806 17.7942 46.8712 16.3595 47.4092C15.1127 47.8789 13.2084 48.1009 11.62 47.9557Z" fill="#566A8E"/>
<path d="M18.0418 36.3932C17.0768 35.9919 17.0171 35.9492 17.0171 35.5734C17.0171 35.2148 17.111 35.0013 18.5115 32.1149C18.9214 31.2695 19.707 29.6213 20.2621 28.4429C20.8172 27.2729 22.0042 24.7538 22.9094 22.8494L24.5404 19.3909L24.6942 18.4088C24.7881 17.7854 24.9076 17.3158 25.0272 17.1279C25.2834 16.7009 25.3261 16.2995 25.2151 15.5566C24.882 13.3619 23.6865 11.6198 21.526 10.1852C19.6046 8.92133 16.8206 8.6993 14.7455 9.64719C12.9522 10.467 11.3553 12.0127 10.6465 13.601C10.4159 14.139 10.0829 15.1723 10.1341 15.2236C10.1512 15.2406 10.3989 15.2919 10.6807 15.3346C12.7302 15.6676 14.5747 16.6326 16.1289 18.1868C17.0427 19.1091 17.427 19.6215 17.9052 20.595C19.4081 23.6351 19.152 27.5804 17.2732 30.3728C16.7352 31.167 15.4543 32.4479 14.6687 32.9689C13.0974 34.0192 11.2187 34.5914 9.16061 34.6597L8.52014 34.6768L8.49452 33.5069L8.4689 32.3455L8.9642 32.2857C11.1503 32.0295 12.7045 31.372 14.0367 30.1252C16.2741 28.033 17 24.7025 15.7703 22.1833C15.4031 21.4318 14.5918 20.2705 14.105 19.8093C13.2169 18.9639 11.9189 18.238 10.6721 17.8965C10.1 17.7427 8.597 17.5634 7.77719 17.5549H7.53809V16.5814C7.53809 12.4994 9.52781 9.27999 13.0888 7.62331C14.4893 6.97429 14.9248 6.86328 16.8036 6.70957C18.7079 6.54731 20.0998 6.75227 21.7992 7.45251C24.1476 8.41749 25.6762 9.8436 26.812 12.1322C27.6659 13.8401 27.9648 15.9409 27.6489 17.9818C27.4525 19.2884 27.256 19.8179 26.052 22.337C25.7445 22.969 25.3773 23.7375 25.2322 24.045C25.0784 24.3524 24.9076 24.694 24.8393 24.8135C24.771 24.9331 24.6429 25.2234 24.549 25.454C24.3782 25.8724 23.8658 26.957 22.602 29.5786C22.2518 30.296 21.97 30.9023 21.97 30.9194C21.97 30.9279 21.637 31.6281 21.2356 32.465C20.8343 33.3104 20.3475 34.3181 20.1596 34.7195C19.9803 35.1208 19.707 35.7015 19.5619 36.026L19.2886 36.5982H18.9043C18.6908 36.5897 18.298 36.5043 18.0418 36.3932Z" fill="#ED7F1D"/>
</g>
<defs>
<clipPath id="clip0_116_395">
<rect width="35" height="48" fill="white"/>
</clipPath>
</defs>
</svg>
