<svg width="167" height="49" viewBox="0 0 167 49" fill="none" xmlns="http://www.w3.org/2000/svg">
<path d="M10.5457 42.2942C10.5287 42.2344 10.4945 42.0124 10.486 41.8074L10.4603 41.4231L10.2127 41.8245C9.98213 42.1832 9.92235 42.2258 9.65762 42.2258C9.38436 42.2258 9.32458 42.1832 9.13671 41.8586L8.92322 41.5L8.8976 41.9099L8.87198 42.3112H8.4023H7.94116V40.5606V38.81H8.22297C8.49624 38.81 8.54747 38.8698 9.08547 39.6725L9.65762 40.5265L9.81134 40.3301C9.88819 40.219 10.1615 39.8177 10.4091 39.4334C10.8361 38.7758 10.8873 38.7246 11.1521 38.7246H11.4424V40.5094C11.4424 42.482 11.468 42.3966 10.8788 42.3966C10.7165 42.3966 10.5628 42.3454 10.5457 42.2942Z" fill="white"/>
<path d="M26.5829 42.3454C26.4975 42.3112 26.4719 41.8501 26.4719 40.4666V38.6392H26.9416H27.4113L27.3942 40.5008L27.3686 42.3539L27.027 42.371C26.8391 42.3795 26.6342 42.371 26.5829 42.3454Z" fill="white"/>
<path d="M31.7751 42.277C31.0151 42.0294 30.6308 41.4487 30.6223 40.5606C30.6137 39.7835 30.8785 39.2796 31.4506 38.9978C31.9203 38.7673 32.8682 38.7416 33.3891 38.9466C33.7051 39.0747 33.7307 39.1088 33.7307 39.3992C33.7307 39.57 33.6709 39.7749 33.6111 39.8603C33.4745 40.0397 32.9877 40.0567 32.6547 39.8774C32.4412 39.7664 32.39 39.7664 32.1594 39.903C32.0228 39.9799 31.8349 40.1507 31.7495 40.2702C31.5872 40.4837 31.5872 40.5093 31.7153 40.757C31.963 41.2437 32.4156 41.4145 32.7572 41.1583C32.8426 41.09 33.0561 41.0303 33.2269 41.0303C33.5855 41.0303 33.7563 41.2694 33.7136 41.7134C33.6965 41.944 33.6282 42.0294 33.372 42.1575C32.9536 42.3795 32.2448 42.4222 31.7751 42.277Z" fill="white"/>
<path d="M36.7197 42.0466C36.7197 41.7989 36.8991 41.3036 37.3858 40.2618L38.0434 38.8186L38.3508 38.8101C38.6582 38.8101 38.6582 38.8101 39.0681 39.6896C39.2901 40.1679 39.6061 40.8254 39.7598 41.1585C39.9221 41.483 40.0502 41.8758 40.0502 42.021C40.0502 42.2515 40.016 42.2942 39.7854 42.3455C39.2901 42.4394 39.1279 42.4052 38.94 42.1405C38.7778 41.9185 38.7095 41.8843 38.3423 41.8843C37.9921 41.8843 37.9067 41.9185 37.8213 42.0807C37.6762 42.354 37.5822 42.3967 37.1296 42.3967H36.7197V42.0466Z" fill="white"/>
<path d="M52.6629 42.2774C52.4836 42.209 52.2615 42.0895 52.1676 42.0041C51.9712 41.8248 51.9541 41.3551 52.142 41.1672C52.3128 40.9964 52.8935 40.9879 53.0301 41.1587C53.1497 41.3038 53.4571 41.3295 53.4571 41.2014C53.4571 41.1587 53.1924 40.9879 52.8679 40.8256C52.5434 40.6634 52.2615 40.467 52.2274 40.3901C52.2018 40.3133 52.1762 39.9973 52.1762 39.6984C52.1762 39.2116 52.2018 39.1177 52.3982 38.9384C52.8081 38.5541 53.8926 38.537 54.2854 38.9042C54.5245 39.1433 54.5587 39.6301 54.3367 39.8009C54.1317 39.9546 53.6706 39.946 53.5425 39.7923C53.4229 39.6472 53.2863 39.6215 53.2863 39.7411C53.2863 39.7838 53.4742 39.8948 53.6962 39.9887C53.9182 40.0827 54.2086 40.262 54.3367 40.3816C54.5416 40.5694 54.5672 40.6548 54.5672 41.1587C54.5672 41.4746 54.5245 41.7991 54.4818 41.8931C54.2684 42.2859 53.2607 42.4994 52.6629 42.2774Z" fill="white"/>
<path d="M58.3846 42.337C58.3505 42.3114 58.3249 41.9783 58.3249 41.6026C58.3249 40.945 58.3163 40.9109 57.8552 40.0911C57.488 39.4421 57.3855 39.1688 57.3855 38.8955V38.5283L57.8723 38.5881C58.137 38.6223 58.3676 38.6564 58.3676 38.665C58.3761 38.6735 58.4786 38.8528 58.5981 39.0578L58.8202 39.425L59.0507 39.0322L59.2813 38.6393H59.7851H60.289V38.9126C60.289 39.0834 60.1011 39.5189 59.7766 40.0996C59.2728 41.0133 59.2642 41.0219 59.2642 41.7051V42.3968H58.8543C58.6237 42.3968 58.4103 42.3711 58.3846 42.337Z" fill="white"/>
<path d="M75.4724 42.3367L74.6355 42.3026V40.4836V38.6647L75.72 38.6135C76.3263 38.5878 76.8387 38.5878 76.8729 38.6135C76.9156 38.6305 76.9412 38.8611 76.9412 39.1173V39.5784H76.258C75.5834 39.5784 75.5749 39.5784 75.5749 39.7919C75.5749 39.9969 75.5919 40.0054 76.1299 40.0054H76.685V40.5263V41.0472L76.1299 40.9875L75.5749 40.9277V41.1497C75.5749 41.3717 75.5834 41.3717 76.258 41.3717H76.9412V41.8841V42.3965L76.6252 42.3794C76.4459 42.3709 75.925 42.3453 75.4724 42.3367Z" fill="white"/>
<path d="M82.8506 42.3283C82.7823 42.2856 82.714 42.0892 82.6884 41.8928L82.6371 41.5427L82.4151 41.8843C82.2272 42.1832 82.1589 42.2258 81.8857 42.2258C81.6209 42.2258 81.5612 42.1917 81.4672 41.9697C81.4074 41.833 81.3135 41.6708 81.2452 41.6195C81.1427 41.5427 81.1256 41.5854 81.1256 41.9184V42.3112H80.656H80.1863V40.5606V38.81H80.4766C80.7584 38.81 80.8011 38.8612 81.3391 39.6725L81.9027 40.535L82.0565 40.3301C82.1333 40.2276 82.4151 39.8177 82.6713 39.4334C83.0897 38.7844 83.1581 38.7246 83.4143 38.7246H83.6875L83.6704 40.5435L83.6448 42.3539L83.3032 42.3796C83.1154 42.3881 82.9104 42.3625 82.8506 42.3283Z" fill="white"/>
<path d="M87.5301 42.2692C87.3166 42.2009 87.1031 42.0813 87.0434 41.9959C86.9067 41.8166 86.8982 41.27 87.0348 41.1334C87.1885 40.9797 87.6924 41.0138 87.9315 41.1932C88.0425 41.2871 88.1962 41.3384 88.2645 41.3127C88.4439 41.2444 88.3243 41.1419 87.7265 40.826C87.4533 40.6808 87.1885 40.4673 87.1288 40.3478C86.9751 40.0403 86.9921 39.3145 87.1544 39.0754C87.4362 38.6825 88.2645 38.5203 88.8879 38.7338C89.2039 38.8448 89.3234 39.0327 89.3234 39.4426C89.3234 39.7756 89.1612 39.9208 88.7513 39.9208C88.5122 39.9293 88.5122 39.9293 88.8281 40.0916C89.3149 40.3478 89.4942 40.6381 89.4942 41.1505C89.4942 41.6458 89.3747 41.9276 89.0673 42.1496C88.7769 42.3631 88.0083 42.4229 87.5301 42.2692Z" fill="white"/>
<path d="M14.7729 40.4752V38.6392H15.9258H17.0786V39.1088V39.5785H16.3955C15.7208 39.5785 15.7123 39.5785 15.7123 39.792C15.7123 39.997 15.7294 40.0055 16.2588 40.0055C16.8395 40.0055 16.9079 40.0567 16.9079 40.4752C16.9079 40.8936 16.8395 40.9449 16.2588 40.9449C15.7294 40.9449 15.7123 40.9534 15.7123 41.1583C15.7123 41.3718 15.7208 41.3718 16.3955 41.3718H17.0786V41.8415V42.3112H15.9258H14.7729V40.4752Z" fill="white"/>
<path d="M20.3237 40.5607V38.8101H21.2887C22.117 38.8101 22.2878 38.8357 22.5782 39.0065C23.1162 39.3054 23.2699 39.6555 23.2699 40.5692C23.2699 41.2524 23.2443 41.3805 23.0564 41.6623C22.7063 42.1832 22.3647 42.3113 21.2631 42.3113H20.3237V40.5607ZM21.9121 41.1585C22.006 41.0901 22.1427 40.9193 22.2024 40.7742C22.3818 40.3472 22.0829 39.9287 21.5022 39.7921L21.2631 39.7323V40.4155C21.2631 40.7912 21.2887 41.167 21.3143 41.2353C21.3741 41.389 21.5876 41.3549 21.9121 41.1585Z" fill="white"/>
<path d="M43.1243 40.4752V38.6392H43.5939H44.0636V40.0055V41.3718H44.7468H45.43V41.8415V42.3112H44.2771H43.1243V40.4752Z" fill="white"/>
<path d="M63.6107 42.1147C63.3887 41.961 63.3118 41.85 63.2947 41.6108C63.2776 41.4144 63.3203 41.2607 63.4057 41.1668C63.5851 40.996 64.1572 40.9875 64.3024 41.1582C64.422 41.3034 64.7294 41.329 64.7294 41.2009C64.7294 41.1582 64.4647 40.9875 64.1401 40.8252C63.8156 40.6629 63.5338 40.4665 63.4997 40.3897C63.4741 40.3128 63.4484 39.9969 63.4484 39.698C63.4484 39.2283 63.4826 39.1087 63.6534 38.9379C63.8925 38.6988 64.3195 38.6049 64.9087 38.6561C65.4552 38.7074 65.7541 38.9721 65.7541 39.3905C65.7541 39.7492 65.5663 39.9115 65.1564 39.92L64.8575 39.9285L65.1991 40.0993C65.7114 40.3555 65.8395 40.5605 65.8395 41.1839C65.8395 41.4828 65.7968 41.7987 65.7541 41.8927C65.6004 42.1745 65.2076 42.3111 64.533 42.3111C64.0121 42.3111 63.8498 42.2769 63.6107 42.1147ZM64.7465 39.7321C64.6952 39.6809 64.6184 39.6638 64.5842 39.698C64.55 39.7321 64.5757 39.7919 64.644 39.8346C64.8062 39.9371 64.8746 39.8602 64.7465 39.7321Z" fill="white"/>
<path d="M69.6824 40.9534V39.5871L69.2811 39.5614C68.8968 39.5358 68.8712 39.5187 68.8456 39.2882C68.8285 39.1601 68.837 38.9551 68.8626 38.8441C68.9139 38.6392 68.9224 38.6392 70.1948 38.6392H71.4758V39.1003V39.57L71.0744 39.5956L70.6645 39.6212L70.6389 40.9705L70.6133 42.3112H70.1521H69.6824V40.9534Z" fill="white"/>
<path d="M112.62 48.5453C111.647 48.4514 111.04 48.3233 110.161 48.0159C108.35 47.3754 106.873 46.3677 105.694 44.9587C104.396 43.413 103.508 40.928 103.602 39.1091L103.628 38.5967H104.823H106.019L106.087 39.1945C106.412 42.2346 108.333 44.6598 111.245 45.7187C113.935 46.7008 117.018 45.9664 119.144 43.8315C119.827 43.1568 120.272 42.4908 120.81 41.3721C121.322 40.3132 122.039 38.8102 122.543 37.7427C122.765 37.2731 123.141 36.4874 123.38 35.9921C123.944 34.788 124.464 33.6864 124.806 32.9606C125.891 30.6122 128.265 25.5994 129.417 23.2254C130.647 20.6806 130.98 19.6729 131.168 17.9052C131.527 14.6687 130.032 10.954 127.351 8.40064C125.66 6.7952 123.534 5.68505 121.108 5.13851C119.913 4.87378 117.402 4.87378 116.207 5.13851C111.074 6.29136 107.266 10.0402 106.267 14.9249C106.13 15.6081 105.959 19.2801 106.036 20.0401L106.087 20.5183L108.487 20.561C110.417 20.5867 110.989 20.6294 111.399 20.7404C113.064 21.2186 114.328 22.4995 114.781 24.1648C115.02 25.0443 114.977 26.2228 114.661 27.2134C114.371 28.1186 114.106 28.537 113.431 29.1519C112.757 29.7753 111.894 30.2193 111.015 30.4072C110.161 30.5865 107.838 30.5353 106.916 30.3133C104.115 29.6472 102.304 27.8112 101.749 25.0956C101.63 24.4807 101.612 23.8061 101.647 19.5448L101.681 14.6858L101.903 13.661C103.115 8.13591 106.685 3.96859 112.142 1.71413C114.832 0.60398 118.897 0.279475 122.201 0.902866C126.164 1.65435 129.708 3.78925 132.236 6.94891C134.746 10.1 135.95 14.1222 135.617 18.2297C135.395 20.9453 134.849 22.602 132.748 26.8974C132.056 28.3065 131.937 28.4858 131.373 29.058C130.886 29.5447 130.604 29.7497 130.032 30.0144C129.631 30.2023 129.255 30.356 129.187 30.356C129.119 30.356 128.999 30.4243 128.931 30.5097C128.786 30.6634 127.957 32.3969 126.061 36.4618C123.269 42.4566 122.15 44.5488 121.194 45.5736C120.357 46.4702 118.794 47.4608 117.36 47.9988C116.113 48.4685 114.208 48.6905 112.62 48.5453Z" fill="#566A8E"/>
<path d="M5.89184 36.3334C4.5682 36.1626 3.27018 35.6844 2.21981 34.967C1.10112 34.207 -0.000488281 32.8065 -0.000488281 32.1746C0.00805133 31.8586 0.0251305 31.833 1.23775 30.979C2.27959 30.2275 2.51016 30.0995 2.79196 30.0995C3.06523 30.0995 3.15063 30.1421 3.27018 30.3471C3.34704 30.4837 3.64592 30.8253 3.92773 31.1071C5.11474 32.2856 6.85682 32.798 8.49642 32.4564C9.7432 32.2002 10.5801 31.6878 11.0156 30.9193C11.3316 30.3813 11.3401 29.9714 11.0668 29.4248C10.6399 28.5965 9.58095 27.8365 7.53999 26.8886C3.27872 24.9244 2.21981 24.1986 1.53664 22.8066C1.10966 21.9185 0.998646 21.3293 1.04988 20.0654C1.0755 19.1602 1.12674 18.8442 1.30607 18.3404C2.13441 16.0176 4.38887 14.5147 7.30088 14.3353C8.94902 14.2414 10.3837 14.489 11.5707 15.0612C12.9626 15.7444 14.3375 17.4096 14.2436 18.3148C14.218 18.571 14.1155 18.6649 13.0651 19.3908C12.1343 20.0398 11.8525 20.1935 11.6048 20.1935C11.3743 20.1935 11.2803 20.1508 11.212 19.9971C10.7594 19.0065 9.18813 18.0586 7.99258 18.0586C6.76288 18.0586 5.41362 18.8784 4.99518 19.8861C4.51696 21.0304 5.35385 21.8417 8.19754 23.0287C9.71759 23.6606 11.3657 24.4804 12.1855 25.0013C13.475 25.8296 14.4229 26.9398 14.8584 28.1353C15.1573 28.9637 15.2086 30.7228 14.9524 31.7134C14.7218 32.6357 14.2863 33.4128 13.586 34.1472C12.5784 35.1891 11.4938 35.7868 9.90546 36.154C8.97464 36.3761 6.95075 36.4615 5.89184 36.3334Z" fill="#566A8E"/>
<path d="M88.043 36.2571C86.9755 36.0607 86.4034 35.8643 85.4896 35.3946C84.0721 34.6517 82.5776 33.0121 82.5776 32.1923V31.8507L83.8073 30.9797C85.2847 29.9122 85.4811 29.8695 85.8995 30.4758C86.4888 31.3298 87.7612 32.1581 88.9396 32.4485C89.9729 32.7047 91.3991 32.5253 92.4238 32.013C93.218 31.6031 93.8414 30.7662 93.8499 30.1001C93.8499 29.6731 93.4315 29.007 92.8508 28.4946C92.3299 28.0335 91.1087 27.3076 90.1779 26.8977C86.5059 25.3008 85.1822 24.4639 84.3624 23.2513C83.8159 22.4486 83.6792 21.9533 83.628 20.5613C83.5853 19.4085 83.5939 19.306 83.8159 18.5972C84.5844 16.0951 86.7877 14.5324 89.8363 14.3445C93.0643 14.1396 95.4297 15.2412 96.5826 17.4871C96.9327 18.1702 96.9242 18.5118 96.5484 18.7595C96.3862 18.8705 95.8482 19.2377 95.3529 19.5793C94.2513 20.3308 93.9866 20.382 93.6962 19.8611C93.4656 19.4597 92.6715 18.7082 92.2189 18.4777C91.382 18.0592 90.4255 17.9568 89.5887 18.2215C88.5468 18.546 87.7612 19.2121 87.5135 19.9977C87.1549 21.1079 87.9064 21.8081 90.7757 23.0464C93.8243 24.3529 95.0284 25.0446 96.0958 26.1035C97.1889 27.1795 97.5903 28.136 97.6671 29.8097C97.7611 31.7995 97.2487 33.1231 95.8909 34.4126C94.9601 35.3007 93.9182 35.8216 92.4409 36.1632C91.3051 36.4279 89.2385 36.4706 88.043 36.2571Z" fill="#566A8E"/>
<path d="M21.6474 35.9753C21.6218 35.9155 21.5962 31.9446 21.5791 27.1539L21.562 18.4435L19.1282 18.4349C17.7875 18.4349 16.5493 18.4178 16.3785 18.4178L16.054 18.4008V16.5477V14.686L23.509 14.6946L30.9556 14.7117V16.5733V18.4435H28.6499C27.386 18.452 26.1392 18.4605 25.9001 18.4691L25.4475 18.4862V27.282V36.0778H23.5688C22.1427 36.0778 21.673 36.0521 21.6474 35.9753Z" fill="#566A8E"/>
<path d="M28.8635 35.7869C28.8635 35.6247 28.9318 35.3258 29.0258 35.1208C29.1795 34.7622 36.7029 18.4259 37.9753 15.6932L38.6243 14.3013H39H39.3758L39.6576 14.9247C39.8113 15.2577 40.9215 17.6744 42.1255 20.279C43.3211 22.8836 45.3877 27.3669 46.7028 30.2276C48.4961 34.1217 49.1024 35.5222 49.1024 35.7613V36.0773L47.087 36.0602L45.0717 36.0346L44.4568 34.6255C44.1153 33.8484 43.8164 33.1567 43.7908 33.0799C43.7481 32.9603 43.3894 32.9347 40.9727 32.892C37.5483 32.8151 34.8583 32.8151 34.5338 32.8835C34.3033 32.9262 34.2264 33.0628 33.5945 34.4804L32.9028 36.0346L30.8874 36.0602L28.8635 36.0773V35.7869ZM42.0999 29.4505C42.0999 29.3737 39.4099 23.3533 39.1623 22.875L38.983 22.5164L37.4458 25.9322C36.6004 27.8024 35.9002 29.3737 35.8831 29.4249C35.866 29.4676 37.053 29.5018 38.9744 29.5018C40.6909 29.5018 42.0999 29.4762 42.0999 29.4505Z" fill="#566A8E"/>
<path d="M50.9983 25.3857L51.0239 14.7026H55.1229C60.0332 14.7112 60.315 14.7453 61.8692 15.5224C63.5771 16.3764 64.8666 17.8281 65.4815 19.5958C65.6864 20.1936 65.7035 20.3473 65.7035 21.7734C65.712 23.6009 65.601 24.0791 64.8837 25.2576C63.8675 26.9057 62.3303 28.0586 60.4175 28.5795C59.8112 28.7418 59.4696 28.7674 57.2407 28.8015L54.7386 28.8357V32.4565V36.0773H52.8599H50.9812L50.9983 25.3857ZM58.9914 24.9331C60.4431 24.5915 61.5532 23.6009 61.8692 22.3541C62.2279 20.9622 61.2202 19.4165 59.555 18.776C59.0682 18.5882 58.7522 18.5369 57.7702 18.4771C57.1126 18.443 56.1647 18.4344 55.6609 18.4601L54.7386 18.5113V21.7905V25.0612H56.6003C57.9324 25.0612 58.6071 25.027 58.9914 24.9331Z" fill="#566A8E"/>
<path d="M67.9067 25.3942L67.9323 14.7197H74.32C77.8298 14.7197 80.7332 14.7368 80.7674 14.7624C80.8015 14.7795 80.8272 15.5993 80.8186 16.5814L80.8101 18.3576L76.2328 18.3832L71.6471 18.4003V20.7914V23.1825L71.8435 23.191C71.946 23.1996 73.7222 23.2166 75.7888 23.2252L79.5462 23.2423L79.5718 25.1295L79.5889 27.0253H75.618H71.6471V29.6299V32.2345H76.1645C79.6743 32.2345 80.6991 32.2601 80.7588 32.3455C80.8101 32.4053 80.8272 33.1567 80.8015 34.2669L80.7674 36.0773H74.3285H67.8896L67.9067 25.3942Z" fill="#566A8E"/>
<path d="M119.042 36.9827C118.077 36.5814 118.017 36.5387 118.017 36.1629C118.017 35.8043 118.111 35.5908 119.511 32.7044C119.921 31.859 120.707 30.2108 121.262 29.0323C121.817 27.8624 123.004 25.3432 123.909 23.4389L125.54 19.9804L125.694 18.9983C125.788 18.3749 125.908 17.9052 126.027 17.7174C126.283 17.2904 126.326 16.889 126.215 16.1461C125.882 13.9514 124.686 12.2093 122.526 10.7747C120.605 9.5108 117.821 9.28877 115.746 10.2367C113.952 11.0565 112.355 12.6021 111.647 14.1905C111.416 14.7285 111.083 15.7618 111.134 15.813C111.151 15.8301 111.399 15.8813 111.681 15.924C113.73 16.2571 115.575 17.2221 117.129 18.7763C118.043 19.6986 118.427 20.2109 118.905 21.1844C120.408 24.2245 120.152 28.1698 118.273 30.9623C117.735 31.7565 116.454 33.0374 115.669 33.5583C114.097 34.6087 112.219 35.1809 110.161 35.2492L109.52 35.2663L109.495 34.0963L109.469 32.9349L109.964 32.8752C112.15 32.619 113.705 31.9614 115.037 30.7146C117.274 28.6224 118 25.292 116.77 22.7728C116.403 22.0213 115.592 20.8599 115.105 20.3988C114.217 19.5534 112.919 18.8275 111.672 18.4859C111.1 18.3322 109.597 18.1529 108.777 18.1443H108.538V17.1708C108.538 13.0889 110.528 9.86947 114.089 8.21278C115.489 7.56377 115.925 7.45276 117.804 7.29904C119.708 7.13679 121.1 7.34174 122.799 8.04199C125.148 9.00697 126.676 10.4331 127.812 12.7217C128.666 14.4296 128.965 16.5304 128.649 18.5713C128.452 19.8779 128.256 20.4073 127.052 22.9265C126.745 23.5585 126.377 24.327 126.232 24.6344C126.078 24.9419 125.908 25.2835 125.839 25.403C125.771 25.5226 125.643 25.8129 125.549 26.0435C125.378 26.4619 124.866 27.5465 123.602 30.1681C123.252 30.8854 122.97 31.4918 122.97 31.5088C122.97 31.5174 122.637 32.2176 122.236 33.0545C121.834 33.8999 121.347 34.9076 121.16 35.309C120.98 35.7103 120.707 36.291 120.562 36.6155L120.289 37.1877H119.904C119.691 37.1791 119.298 37.0937 119.042 36.9827Z" fill="#ED7F1D"/>
</svg>
