<svg width="136" height="48" viewBox="0 0 136 48" fill="none" xmlns="http://www.w3.org/2000/svg">
<path d="M10.546 41.7049C10.5289 41.6451 10.4947 41.4231 10.4862 41.2181L10.4606 40.8339L10.2129 41.2352C9.98237 41.5939 9.9226 41.6366 9.65787 41.6366C9.3846 41.6366 9.32482 41.5939 9.13695 41.2694L8.92346 40.9107L8.89784 41.3206L8.87222 41.722H8.40255H7.94141V39.9714V38.2207H8.22321C8.49648 38.2207 8.54772 38.2805 9.08571 39.0832L9.65787 39.9372L9.81158 39.7408C9.88844 39.6298 10.1617 39.2284 10.4094 38.8441C10.8363 38.1866 10.8876 38.1353 11.1523 38.1353H11.4426V39.9201C11.4426 41.8928 11.4683 41.8074 10.879 41.8074C10.7168 41.8074 10.5631 41.7561 10.546 41.7049Z" fill="black"/>
<path d="M26.5834 41.7561C26.498 41.7219 26.4724 41.2608 26.4724 39.8774V38.0499H26.9421H27.4118L27.3947 39.9115L27.3691 41.7646L27.0275 41.7817C26.8396 41.7902 26.6347 41.7817 26.5834 41.7561Z" fill="black"/>
<path d="M31.7756 41.6878C31.0156 41.4401 30.6313 40.8594 30.6228 39.9713C30.6142 39.1942 30.8789 38.6904 31.4511 38.4086C31.9208 38.178 32.8687 38.1524 33.3896 38.3573C33.7056 38.4854 33.7312 38.5196 33.7312 38.8099C33.7312 38.9807 33.6714 39.1857 33.6116 39.2711C33.475 39.4504 32.9882 39.4675 32.6552 39.2881C32.4417 39.1771 32.3905 39.1771 32.1599 39.3138C32.0233 39.3906 31.8354 39.5614 31.75 39.681C31.5877 39.8945 31.5877 39.9201 31.7158 40.1677C31.9635 40.6545 32.4161 40.8253 32.7577 40.5691C32.8431 40.5008 33.0565 40.441 33.2273 40.441C33.586 40.441 33.7568 40.6801 33.7141 41.1242C33.697 41.3547 33.6287 41.4401 33.3725 41.5682C32.9541 41.7902 32.2453 41.8329 31.7756 41.6878Z" fill="black"/>
<path d="M36.72 41.4572C36.72 41.2096 36.8993 40.7143 37.3861 39.6724L38.0436 38.2292L38.351 38.2207C38.6585 38.2207 38.6585 38.2207 39.0684 39.1003C39.2904 39.5785 39.6064 40.2361 39.7601 40.5691C39.9223 40.8936 40.0504 41.2864 40.0504 41.4316C40.0504 41.6622 40.0163 41.7049 39.7857 41.7561C39.2904 41.85 39.1281 41.8159 38.9403 41.5511C38.778 41.3291 38.7097 41.295 38.3425 41.295C37.9924 41.295 37.907 41.3291 37.8216 41.4914C37.6764 41.7646 37.5825 41.8073 37.1299 41.8073H36.72V41.4572Z" fill="black"/>
<path d="M52.6634 41.6878C52.4841 41.6195 52.262 41.5 52.1681 41.4146C51.9717 41.2352 51.9546 40.7655 52.1425 40.5777C52.3133 40.4069 52.894 40.3983 53.0306 40.5691C53.1502 40.7143 53.4576 40.7399 53.4576 40.6118C53.4576 40.5691 53.1929 40.3983 52.8683 40.2361C52.5438 40.0738 52.262 39.8774 52.2279 39.8006C52.2023 39.7237 52.1766 39.4077 52.1766 39.1089C52.1766 38.6221 52.2023 38.5282 52.3987 38.3488C52.8086 37.9646 53.8931 37.9475 54.2859 38.3147C54.525 38.5538 54.5592 39.0405 54.3372 39.2113C54.1322 39.365 53.6711 39.3565 53.543 39.2028C53.4234 39.0576 53.2868 39.032 53.2868 39.1516C53.2868 39.1943 53.4747 39.3053 53.6967 39.3992C53.9187 39.4931 54.2091 39.6725 54.3372 39.792C54.5421 39.9799 54.5677 40.0653 54.5677 40.5691C54.5677 40.8851 54.525 41.2096 54.4823 41.3035C54.2688 41.6964 53.2612 41.9099 52.6634 41.6878Z" fill="black"/>
<path d="M58.3849 41.7475C58.3507 41.7219 58.3251 41.3889 58.3251 41.0131C58.3251 40.3556 58.3166 40.3214 57.8554 39.5016C57.4882 38.8526 57.3857 38.5793 57.3857 38.3061V37.9389L57.8725 37.9987C58.1372 38.0328 58.3678 38.067 58.3678 38.0755C58.3763 38.084 58.4788 38.2634 58.5984 38.4683L58.8204 38.8355L59.051 38.4427L59.2815 38.0499H59.7854H60.2892V38.3232C60.2892 38.4939 60.1013 38.9295 59.7768 39.5102C59.273 40.4239 59.2645 40.4324 59.2645 41.1156V41.8073H58.8546C58.624 41.8073 58.4105 41.7817 58.3849 41.7475Z" fill="black"/>
<path d="M75.4726 41.7475L74.6357 41.7134V39.8945V38.0755L75.7203 38.0243C76.3266 37.9987 76.839 37.9987 76.8731 38.0243C76.9158 38.0414 76.9414 38.2719 76.9414 38.5281V38.9893H76.2583C75.5836 38.9893 75.5751 38.9893 75.5751 39.2027C75.5751 39.4077 75.5922 39.4162 76.1302 39.4162H76.6852V39.9372V40.4581L76.1302 40.3983L75.5751 40.3385V40.5605C75.5751 40.7826 75.5836 40.7826 76.2583 40.7826H76.9414V41.2949V41.8073L76.6255 41.7902C76.4461 41.7817 75.9252 41.7561 75.4726 41.7475Z" fill="black"/>
<path d="M82.8509 41.7391C82.7826 41.6964 82.7142 41.5 82.6886 41.3035L82.6374 40.9534L82.4154 41.295C82.2275 41.5939 82.1592 41.6366 81.8859 41.6366C81.6212 41.6366 81.5614 41.6024 81.4675 41.3804C81.4077 41.2438 81.3138 41.0815 81.2454 41.0303C81.143 40.9534 81.1259 40.9961 81.1259 41.3292V41.722H80.6562H80.1865V39.9714V38.2207H80.4769C80.7587 38.2207 80.8014 38.272 81.3394 39.0832L81.903 39.9457L82.0567 39.7408C82.1336 39.6383 82.4154 39.2284 82.6715 38.8441C83.09 38.1951 83.1583 38.1353 83.4145 38.1353H83.6878L83.6707 39.9543L83.6451 41.7647L83.3035 41.7903C83.1156 41.7988 82.9107 41.7732 82.8509 41.7391Z" fill="black"/>
<path d="M87.5306 41.6793C87.3171 41.611 87.1036 41.4915 87.0439 41.4061C86.9072 41.2267 86.8987 40.6802 87.0353 40.5436C87.189 40.3898 87.6929 40.424 87.932 40.6033C88.043 40.6973 88.1967 40.7485 88.265 40.7229C88.4444 40.6546 88.3248 40.5521 87.727 40.2361C87.4538 40.091 87.189 39.8775 87.1293 39.7579C86.9755 39.4505 86.9926 38.7246 87.1549 38.4855C87.4367 38.0927 88.265 37.9304 88.8884 38.1439C89.2044 38.2549 89.3239 38.4428 89.3239 38.8527C89.3239 39.1858 89.1617 39.3309 88.7518 39.3309C88.5127 39.3395 88.5127 39.3395 88.8286 39.5017C89.3154 39.7579 89.4947 40.0483 89.4947 40.5606C89.4947 41.0559 89.3752 41.3377 89.0677 41.5598C88.7774 41.7733 88.0088 41.833 87.5306 41.6793Z" fill="black"/>
<path d="M14.7732 39.8859V38.0499H15.926H17.0789V38.5196V38.9893H16.3957C15.7211 38.9893 15.7126 38.9893 15.7126 39.2027C15.7126 39.4077 15.7296 39.4162 16.2591 39.4162C16.8398 39.4162 16.9081 39.4675 16.9081 39.8859C16.9081 40.3044 16.8398 40.3556 16.2591 40.3556C15.7296 40.3556 15.7126 40.3641 15.7126 40.5691C15.7126 40.7826 15.7211 40.7826 16.3957 40.7826H17.0789V41.2522V41.7219H15.926H14.7732V39.8859Z" fill="black"/>
<path d="M20.3242 39.9713V38.2207H21.2892C22.1175 38.2207 22.2883 38.2463 22.5787 38.4171C23.1167 38.716 23.2704 39.0661 23.2704 39.9799C23.2704 40.663 23.2448 40.7911 23.0569 41.0729C22.7068 41.5938 22.3652 41.7219 21.2636 41.7219H20.3242V39.9713ZM21.9126 40.5691C22.0065 40.5008 22.1432 40.33 22.2029 40.1848C22.3823 39.7578 22.0834 39.3394 21.5027 39.2028L21.2636 39.143V39.8261C21.2636 40.2019 21.2892 40.5776 21.3148 40.646C21.3746 40.7997 21.5881 40.7655 21.9126 40.5691Z" fill="black"/>
<path d="M43.1248 39.8859V38.0499H43.5944H44.0641V39.4162V40.7826H44.7473H45.4304V41.2522V41.7219H44.2776H43.1248V39.8859Z" fill="black"/>
<path d="M63.6112 41.5255C63.3892 41.3718 63.3123 41.2608 63.2952 41.0217C63.2781 40.8253 63.3208 40.6715 63.4062 40.5776C63.5856 40.4068 64.1577 40.3983 64.3029 40.5691C64.4224 40.7142 64.7299 40.7399 64.7299 40.6118C64.7299 40.5691 64.4651 40.3983 64.1406 40.236C63.8161 40.0738 63.5343 39.8774 63.5002 39.8005C63.4745 39.7237 63.4489 39.4077 63.4489 39.1088C63.4489 38.6391 63.4831 38.5196 63.6539 38.3488C63.893 38.1097 64.32 38.0157 64.9092 38.067C65.4557 38.1182 65.7546 38.3829 65.7546 38.8014C65.7546 39.16 65.5668 39.3223 65.1568 39.3308L64.858 39.3394L65.1995 39.5102C65.7119 39.7664 65.84 39.9713 65.84 40.5947C65.84 40.8936 65.7973 41.2095 65.7546 41.3035C65.6009 41.5853 65.2081 41.7219 64.5335 41.7219C64.0125 41.7219 63.8503 41.6878 63.6112 41.5255ZM64.7469 39.143C64.6957 39.0917 64.6189 39.0746 64.5847 39.1088C64.5505 39.143 64.5762 39.2027 64.6445 39.2454C64.8067 39.3479 64.875 39.2711 64.7469 39.143Z" fill="black"/>
<path d="M69.6827 40.3641V38.9978L69.2813 38.9722C68.897 38.9466 68.8714 38.9295 68.8458 38.6989C68.8287 38.5708 68.8373 38.3659 68.8629 38.2548C68.9141 38.0499 68.9227 38.0499 70.1951 38.0499H71.476V38.511V38.9807L71.0746 39.0063L70.6647 39.032L70.6391 40.3812L70.6135 41.7219H70.1524H69.6827V40.3641Z" fill="black"/>
<path d="M112.62 47.9557C111.647 47.8618 111.04 47.7337 110.161 47.4263C108.35 46.7858 106.873 45.7781 105.694 44.3691C104.396 42.8234 103.508 40.3384 103.602 38.5195L103.628 38.0071H104.823H106.019L106.087 38.6049C106.412 41.645 108.333 44.0702 111.245 45.1291C113.935 46.1112 117.018 45.3768 119.144 43.2419C119.827 42.5672 120.272 41.9012 120.81 40.7825C121.322 39.7236 122.039 38.2206 122.543 37.1531C122.765 36.6835 123.141 35.8978 123.38 35.4025C123.944 34.1984 124.464 33.0968 124.806 32.371C125.891 30.0226 128.265 25.0098 129.417 22.6358C130.647 20.091 130.98 19.0833 131.168 17.3156C131.527 14.0791 130.032 10.3644 127.351 7.81104C125.66 6.2056 123.534 5.09545 121.108 4.54891C119.913 4.28418 117.402 4.28418 116.207 4.54891C111.074 5.70176 107.266 9.45065 106.267 14.3353C106.13 15.0185 105.959 18.6905 106.036 19.4505L106.087 19.9287L108.487 19.9714C110.417 19.9971 110.989 20.0398 111.399 20.1508C113.064 20.629 114.328 21.9099 114.781 23.5752C115.02 24.4547 114.977 25.6332 114.661 26.6238C114.371 27.529 114.106 27.9474 113.431 28.5623C112.757 29.1857 111.894 29.6297 111.015 29.8176C110.161 29.9969 107.838 29.9457 106.916 29.7237C104.115 29.0576 102.304 27.2216 101.749 24.506C101.63 23.8911 101.612 23.2165 101.647 18.9552L101.681 14.0962L101.903 13.0714C103.115 7.54631 106.685 3.37899 112.142 1.12453C114.832 0.0143804 118.897 -0.310125 122.201 0.313267C126.164 1.06475 129.708 3.19965 132.236 6.35931C134.746 9.51042 135.95 13.5326 135.617 17.6401C135.395 20.3557 134.849 22.0124 132.748 26.3078C132.056 27.7169 131.937 27.8962 131.373 28.4684C130.886 28.9551 130.604 29.1601 130.032 29.4248C129.631 29.6127 129.255 29.7664 129.187 29.7664C129.119 29.7664 128.999 29.8347 128.931 29.9201C128.786 30.0738 127.957 31.8073 126.061 35.8722C123.269 41.867 122.15 43.9592 121.194 44.984C120.357 45.8806 118.794 46.8712 117.36 47.4092C116.113 47.8789 114.208 48.1009 112.62 47.9557Z" fill="#566A8E"/>
<path d="M5.89209 35.7442C4.56845 35.5734 3.27043 35.0952 2.22005 34.3778C1.10137 33.6178 -0.000244141 32.2173 -0.000244141 31.5854C0.00829547 31.2694 0.0253747 31.2438 1.238 30.3898C2.27983 29.6383 2.5104 29.5102 2.79221 29.5102C3.06548 29.5102 3.15087 29.5529 3.27043 29.7579C3.34728 29.8945 3.64617 30.2361 3.92798 30.5179C5.11498 31.6964 6.85706 32.2088 8.49667 31.8672C9.74345 31.611 10.5803 31.0986 11.0158 30.3301C11.3318 29.7921 11.3404 29.3822 11.0671 28.8356C10.6401 28.0073 9.5812 27.2473 7.54023 26.2994C3.27897 24.3352 2.22005 23.6094 1.53689 22.2174C1.1099 21.3293 0.99889 20.7401 1.05013 19.4762C1.07575 18.571 1.12698 18.255 1.30632 17.7512C2.13466 15.4284 4.38911 13.9255 7.30112 13.7461C8.94926 13.6522 10.3839 13.8998 11.5709 14.472C12.9629 15.1552 14.3378 16.8204 14.2438 17.7256C14.2182 17.9818 14.1157 18.0757 13.0654 18.8016C12.1345 19.4506 11.8527 19.6043 11.6051 19.6043C11.3745 19.6043 11.2806 19.5616 11.2123 19.4079C10.7597 18.4173 9.18837 17.4694 7.99283 17.4694C6.76313 17.4694 5.41387 18.2892 4.99543 19.2969C4.51721 20.4412 5.35409 21.2524 8.19778 22.4395C9.71783 23.0714 11.366 23.8912 12.1858 24.4121C13.4753 25.2404 14.4232 26.3506 14.8587 27.5461C15.1576 28.3745 15.2088 30.1336 14.9526 31.1242C14.722 32.0465 14.2865 32.8236 13.5863 33.558C12.5786 34.5999 11.4941 35.1976 9.9057 35.5648C8.97488 35.7869 6.951 35.8723 5.89209 35.7442Z" fill="#566A8E"/>
<path d="M88.043 35.6674C86.9755 35.4709 86.4034 35.2745 85.4896 34.8049C84.0721 34.0619 82.5776 32.4223 82.5776 31.6025V31.2609L83.8073 30.3899C85.2847 29.3224 85.4811 29.2797 85.8995 29.886C86.4888 30.74 87.7612 31.5683 88.9396 31.8587C89.9729 32.1149 91.3991 31.9355 92.4238 31.4232C93.218 31.0133 93.8414 30.1764 93.8499 29.5103C93.8499 29.0833 93.4315 28.4172 92.8508 27.9049C92.3299 27.4437 91.1087 26.7178 90.1779 26.3079C86.5059 24.711 85.1822 23.8742 84.3624 22.6615C83.8159 21.8588 83.6792 21.3635 83.628 19.9716C83.5853 18.8187 83.5939 18.7162 83.8159 18.0074C84.5844 15.5053 86.7877 13.9426 89.8363 13.7547C93.0643 13.5498 95.4297 14.6514 96.5826 16.8973C96.9327 17.5805 96.9242 17.922 96.5484 18.1697C96.3862 18.2807 95.8482 18.6479 95.3529 18.9895C94.2513 19.741 93.9866 19.7922 93.6962 19.2713C93.4656 18.8699 92.6715 18.1185 92.2189 17.8879C91.382 17.4695 90.4255 17.367 89.5887 17.6317C88.5468 17.9562 87.7612 18.6223 87.5135 19.4079C87.1549 20.5181 87.9064 21.2183 90.7757 22.4566C93.8243 23.7631 95.0284 24.4549 96.0958 25.5138C97.1889 26.5898 97.5903 27.5462 97.6671 29.22C97.7611 31.2097 97.2487 32.5333 95.8909 33.8228C94.9601 34.7109 93.9182 35.2318 92.4409 35.5734C91.3051 35.8381 89.2385 35.8808 88.043 35.6674Z" fill="#566A8E"/>
<path d="M21.6476 35.3855C21.622 35.3257 21.5964 31.3548 21.5793 26.5641L21.5622 17.8537L19.1285 17.8451C17.7877 17.8451 16.5495 17.8281 16.3787 17.8281L16.0542 17.811V15.9579V14.0963L23.5093 14.1048L30.9558 14.1219V15.9835V17.8537H28.6501C27.3863 17.8622 26.1395 17.8708 25.9004 17.8793L25.4478 17.8964V26.6922V35.488H23.5691C22.1429 35.488 21.6733 35.4624 21.6476 35.3855Z" fill="#566A8E"/>
<path d="M28.8635 35.1977C28.8635 35.0355 28.9318 34.7366 29.0258 34.5316C29.1795 34.173 36.7029 17.8367 37.9753 15.104L38.6243 13.7121H39H39.3758L39.6576 14.3355C39.8113 14.6685 40.9215 17.0852 42.1255 19.6898C43.3211 22.2944 45.3877 26.7777 46.7028 29.6384C48.4961 33.5325 49.1024 34.933 49.1024 35.1721V35.4881L47.087 35.471L45.0717 35.4454L44.4568 34.0363C44.1153 33.2592 43.8164 32.5675 43.7908 32.4907C43.7481 32.3711 43.3894 32.3455 40.9727 32.3028C37.5483 32.2259 34.8583 32.2259 34.5338 32.2943C34.3033 32.337 34.2264 32.4736 33.5945 33.8912L32.9028 35.4454L30.8874 35.471L28.8635 35.4881V35.1977ZM42.0999 28.8613C42.0999 28.7845 39.4099 22.7641 39.1623 22.2858L38.983 21.9272L37.4458 25.343C36.6004 27.2132 35.9002 28.7845 35.8831 28.8357C35.866 28.8784 37.053 28.9126 38.9744 28.9126C40.6909 28.9126 42.0999 28.8869 42.0999 28.8613Z" fill="#566A8E"/>
<path d="M50.9985 24.7965L51.0241 14.1134H55.1232C60.0334 14.122 60.3152 14.1561 61.8694 14.9332C63.5774 15.7872 64.8668 17.2389 65.4817 19.0066C65.6866 19.6044 65.7037 19.7581 65.7037 21.1842C65.7123 23.0117 65.6013 23.4899 64.8839 24.6684C63.8677 26.3165 62.3306 27.4694 60.4177 27.9903C59.8114 28.1525 59.4698 28.1782 57.241 28.2123L54.7389 28.2465V31.8673V35.4881H52.8602H50.9814L50.9985 24.7965ZM58.9916 24.3439C60.4433 24.0023 61.5535 23.0117 61.8694 21.7649C62.2281 20.373 61.2204 18.8273 59.5552 18.1868C59.0685 17.999 58.7525 17.9477 57.7704 17.8879C57.1129 17.8538 56.165 17.8452 55.6612 17.8709L54.7389 17.9221V21.2013V24.472H56.6005C57.9327 24.472 58.6073 24.4378 58.9916 24.3439Z" fill="#566A8E"/>
<path d="M67.9067 24.8049L67.9323 14.1304H74.32C77.8298 14.1304 80.7332 14.1475 80.7674 14.1731C80.8015 14.1902 80.8272 15.01 80.8186 15.9921L80.8101 17.7683L76.2328 17.7939L71.6471 17.811V20.2021V22.5932L71.8435 22.6017C71.946 22.6103 73.7222 22.6273 75.7888 22.6359L79.5462 22.653L79.5718 24.5402L79.5889 26.436H75.618H71.6471V29.0406V31.6452H76.1645C79.6743 31.6452 80.6991 31.6708 80.7588 31.7562C80.8101 31.816 80.8272 32.5674 80.8015 33.6776L80.7674 35.488H74.3285H67.8896L67.9067 24.8049Z" fill="#566A8E"/>
<path d="M119.042 36.3933C118.077 35.9919 118.017 35.9492 118.017 35.5735C118.017 35.2148 118.111 35.0013 119.511 32.1149C119.921 31.2695 120.707 29.6214 121.262 28.4429C121.817 27.273 123.004 24.7538 123.909 22.8495L125.54 19.3909L125.694 18.4089C125.788 17.7855 125.908 17.3158 126.027 17.1279C126.283 16.7009 126.326 16.2996 126.215 15.5566C125.882 13.362 124.686 11.6199 122.526 10.1852C120.605 8.92136 117.821 8.69933 115.746 9.64722C113.952 10.467 112.355 12.0127 111.647 13.6011C111.416 14.1391 111.083 15.1723 111.134 15.2236C111.151 15.2407 111.399 15.2919 111.681 15.3346C113.73 15.6676 115.575 16.6326 117.129 18.1868C118.043 19.1091 118.427 19.6215 118.905 20.595C120.408 23.6351 120.152 27.5804 118.273 30.3728C117.735 31.167 116.454 32.448 115.669 32.9689C114.097 34.0193 112.219 34.5914 110.161 34.6597L109.52 34.6768L109.495 33.5069L109.469 32.3455L109.964 32.2857C112.15 32.0295 113.705 31.372 115.037 30.1252C117.274 28.033 118 24.7025 116.77 22.1834C116.403 21.4319 115.592 20.2705 115.105 19.8094C114.217 18.9639 112.919 18.2381 111.672 17.8965C111.1 17.7428 109.597 17.5634 108.777 17.5549H108.538V16.5814C108.538 12.4995 110.528 9.28002 114.089 7.62334C115.489 6.97433 115.925 6.86331 117.804 6.7096C119.708 6.54735 121.1 6.7523 122.799 7.45254C125.148 8.41752 126.676 9.84363 127.812 12.1322C128.666 13.8402 128.965 15.9409 128.649 17.9819C128.452 19.2884 128.256 19.8179 127.052 22.3371C126.745 22.969 126.377 23.7376 126.232 24.045C126.078 24.3524 125.908 24.694 125.839 24.8136C125.771 24.9331 125.643 25.2235 125.549 25.454C125.378 25.8725 124.866 26.957 123.602 29.5787C123.252 30.296 122.97 30.9023 122.97 30.9194C122.97 30.9279 122.637 31.6282 122.236 32.4651C121.834 33.3105 121.347 34.3181 121.16 34.7195C120.98 35.1209 120.707 35.7016 120.562 36.0261L120.289 36.5982H119.904C119.691 36.5897 119.298 36.5043 119.042 36.3933Z" fill="#ED7F1D"/>
</svg>
